<svg width="142" height="36" viewBox="0 0 142 36" fill="none" xmlns="http://www.w3.org/2000/svg">
<path d="M25.9843 34.9788C25.9843 35.5429 25.5403 36.0001 24.9927 36.0001C24.445 36.0001 24.0011 35.5429 24.0011 34.9788C24.0011 34.4148 24.445 33.9576 24.9927 33.9576C25.5403 33.9576 25.9843 34.4148 25.9843 34.9788Z" fill="#4A399D"/>
<path d="M25.9843 31.915C25.9843 32.4791 25.5403 32.9363 24.9927 32.9363C24.445 32.9363 24.0011 32.4791 24.0011 31.915C24.0011 31.351 24.445 30.8938 24.9927 30.8938C25.5403 30.8938 25.9843 31.351 25.9843 31.915Z" fill="#4A399D"/>
<path d="M25.9843 28.8512C25.9843 29.4152 25.5403 29.8725 24.9927 29.8725C24.445 29.8725 24.0011 29.4152 24.0011 28.8512C24.0011 28.2872 24.445 27.8299 24.9927 27.8299C25.5403 27.8299 25.9843 28.2872 25.9843 28.8512Z" fill="#4A399D"/>
<path d="M28.9591 34.9788C28.9591 35.5429 28.5151 36.0001 27.9675 36.0001C27.4198 36.0001 26.9759 35.5429 26.9759 34.9788C26.9759 34.4148 27.4198 33.9576 27.9675 33.9576C28.5151 33.9576 28.9591 34.4148 28.9591 34.9788Z" fill="#4A399D"/>
<path d="M28.9591 31.915C28.9591 32.4791 28.5151 32.9363 27.9675 32.9363C27.4198 32.9363 26.9759 32.4791 26.9759 31.915C26.9759 31.351 27.4198 30.8938 27.9675 30.8938C28.5151 30.8938 28.9591 31.351 28.9591 31.915Z" fill="#4A399D"/>
<path d="M28.9591 28.8512C28.9591 29.4152 28.5151 29.8725 27.9675 29.8725C27.4198 29.8725 26.9759 29.4152 26.9759 28.8512C26.9759 28.2872 27.4198 27.8299 27.9675 27.8299C28.5151 27.8299 28.9591 28.2872 28.9591 28.8512Z" fill="#4A399D"/>
<path d="M31.9339 34.9788C31.9339 35.5429 31.4899 36.0001 30.9423 36.0001C30.3946 36.0001 29.9507 35.5429 29.9507 34.9788C29.9507 34.4148 30.3946 33.9576 30.9423 33.9576C31.4899 33.9576 31.9339 34.4148 31.9339 34.9788Z" fill="#4A399D"/>
<path d="M31.9339 31.915C31.9339 32.4791 31.4899 32.9363 30.9423 32.9363C30.3946 32.9363 29.9507 32.4791 29.9507 31.915C29.9507 31.351 30.3946 30.8938 30.9423 30.8938C31.4899 30.8938 31.9339 31.351 31.9339 31.915Z" fill="#4A399D"/>
<path d="M31.9339 28.8512C31.9339 29.4152 31.4899 29.8725 30.9423 29.8725C30.3946 29.8725 29.9507 29.4152 29.9507 28.8512C29.9507 28.2872 30.3946 27.8299 30.9423 27.8299C31.4899 27.8299 31.9339 28.2872 31.9339 28.8512Z" fill="#4A399D"/>
<path d="M34.9087 34.9788C34.9087 35.5429 34.4647 36.0001 33.917 36.0001C33.3694 36.0001 32.9255 35.5429 32.9255 34.9788C32.9255 34.4148 33.3694 33.9576 33.917 33.9576C34.4647 33.9576 34.9087 34.4148 34.9087 34.9788Z" fill="#4A399D"/>
<path d="M34.9087 31.915C34.9087 32.4791 34.4647 32.9363 33.917 32.9363C33.3694 32.9363 32.9255 32.4791 32.9255 31.915C32.9255 31.351 33.3694 30.8938 33.917 30.8938C34.4647 30.8938 34.9087 31.351 34.9087 31.915Z" fill="#4A399D"/>
<path d="M34.9087 28.8512C34.9087 29.4152 34.4647 29.8725 33.917 29.8725C33.3694 29.8725 32.9255 29.4152 32.9255 28.8512C32.9255 28.2872 33.3694 27.8299 33.917 27.8299C34.4647 27.8299 34.9087 28.2872 34.9087 28.8512Z" fill="#4A399D"/>
<path d="M37.8834 34.9788C37.8834 35.5429 37.4395 36.0001 36.8918 36.0001C36.3442 36.0001 35.9002 35.5429 35.9002 34.9788C35.9002 34.4148 36.3442 33.9576 36.8918 33.9576C37.4395 33.9576 37.8834 34.4148 37.8834 34.9788Z" fill="#4A399D"/>
<path d="M37.8834 31.915C37.8834 32.4791 37.4395 32.9363 36.8918 32.9363C36.3442 32.9363 35.9002 32.4791 35.9002 31.915C35.9002 31.351 36.3442 30.8938 36.8918 30.8938C37.4395 30.8938 37.8834 31.351 37.8834 31.915Z" fill="#4A399D"/>
<path d="M37.8834 28.8512C37.8834 29.4152 37.4395 29.8725 36.8918 29.8725C36.3442 29.8725 35.9002 29.4152 35.9002 28.8512C35.9002 28.2872 36.3442 27.8299 36.8918 27.8299C37.4395 27.8299 37.8834 28.2872 37.8834 28.8512Z" fill="#4A399D"/>
<path d="M40.8582 34.9788C40.8582 35.5429 40.4143 36.0001 39.8666 36.0001C39.319 36.0001 38.875 35.5429 38.875 34.9788C38.875 34.4148 39.319 33.9576 39.8666 33.9576C40.4143 33.9576 40.8582 34.4148 40.8582 34.9788Z" fill="#4A399D"/>
<path d="M40.8582 31.915C40.8582 32.4791 40.4143 32.9363 39.8666 32.9363C39.319 32.9363 38.875 32.4791 38.875 31.915C38.875 31.351 39.319 30.8938 39.8666 30.8938C40.4143 30.8938 40.8582 31.351 40.8582 31.915Z" fill="#4A399D"/>
<path d="M40.8582 28.8512C40.8582 29.4152 40.4143 29.8725 39.8666 29.8725C39.319 29.8725 38.875 29.4152 38.875 28.8512C38.875 28.2872 39.319 27.8299 39.8666 27.8299C40.4143 27.8299 40.8582 28.2872 40.8582 28.8512Z" fill="#4A399D"/>
<path d="M43.833 34.9788C43.833 35.5429 43.3891 36.0001 42.8414 36.0001C42.2938 36.0001 41.8498 35.5429 41.8498 34.9788C41.8498 34.4148 42.2938 33.9576 42.8414 33.9576C43.3891 33.9576 43.833 34.4148 43.833 34.9788Z" fill="#4A399D"/>
<path d="M43.833 31.915C43.833 32.4791 43.3891 32.9363 42.8414 32.9363C42.2938 32.9363 41.8498 32.4791 41.8498 31.915C41.8498 31.351 42.2938 30.8938 42.8414 30.8938C43.3891 30.8938 43.833 31.351 43.833 31.915Z" fill="#4A399D"/>
<path d="M43.833 28.8512C43.833 29.4152 43.3891 29.8725 42.8414 29.8725C42.2938 29.8725 41.8498 29.4152 41.8498 28.8512C41.8498 28.2872 42.2938 27.8299 42.8414 27.8299C43.3891 27.8299 43.833 28.2872 43.833 28.8512Z" fill="#4A399D"/>
<path d="M46.8078 34.9788C46.8078 35.5429 46.3638 36.0001 45.8162 36.0001C45.2686 36.0001 44.8246 35.5429 44.8246 34.9788C44.8246 34.4148 45.2686 33.9576 45.8162 33.9576C46.3638 33.9576 46.8078 34.4148 46.8078 34.9788Z" fill="#4A399D"/>
<path d="M46.8078 31.915C46.8078 32.4791 46.3638 32.9363 45.8162 32.9363C45.2686 32.9363 44.8246 32.4791 44.8246 31.915C44.8246 31.351 45.2686 30.8938 45.8162 30.8938C46.3638 30.8938 46.8078 31.351 46.8078 31.915Z" fill="#4A399D"/>
<path d="M46.8078 28.8512C46.8078 29.4152 46.3638 29.8725 45.8162 29.8725C45.2686 29.8725 44.8246 29.4152 44.8246 28.8512C44.8246 28.2872 45.2686 27.8299 45.8162 27.8299C46.3638 27.8299 46.8078 28.2872 46.8078 28.8512Z" fill="#4A399D"/>
<path d="M49.7826 34.9788C49.7826 35.5429 49.3386 36.0001 48.791 36.0001C48.2433 36.0001 47.7994 35.5429 47.7994 34.9788C47.7994 34.4148 48.2433 33.9576 48.791 33.9576C49.3386 33.9576 49.7826 34.4148 49.7826 34.9788Z" fill="#4A399D"/>
<path d="M49.7826 31.915C49.7826 32.4791 49.3386 32.9363 48.791 32.9363C48.2433 32.9363 47.7994 32.4791 47.7994 31.915C47.7994 31.351 48.2433 30.8938 48.791 30.8938C49.3386 30.8938 49.7826 31.351 49.7826 31.915Z" fill="#4A399D"/>
<path d="M49.7826 28.8512C49.7826 29.4152 49.3386 29.8725 48.791 29.8725C48.2433 29.8725 47.7994 29.4152 47.7994 28.8512C47.7994 28.2872 48.2433 27.8299 48.791 27.8299C49.3386 27.8299 49.7826 28.2872 49.7826 28.8512Z" fill="#4A399D"/>
<path d="M52.7574 34.9788C52.7574 35.5429 52.3134 36.0001 51.7658 36.0001C51.2181 36.0001 50.7742 35.5429 50.7742 34.9788C50.7742 34.4148 51.2181 33.9576 51.7658 33.9576C52.3134 33.9576 52.7574 34.4148 52.7574 34.9788Z" fill="#4A399D"/>
<path d="M52.7574 31.915C52.7574 32.4791 52.3134 32.9363 51.7658 32.9363C51.2181 32.9363 50.7742 32.4791 50.7742 31.915C50.7742 31.351 51.2181 30.8938 51.7658 30.8938C52.3134 30.8938 52.7574 31.351 52.7574 31.915Z" fill="#4A399D"/>
<path d="M52.7574 28.8512C52.7574 29.4152 52.3134 29.8725 51.7658 29.8725C51.2181 29.8725 50.7742 29.4152 50.7742 28.8512C50.7742 28.2872 51.2181 27.8299 51.7658 27.8299C52.3134 27.8299 52.7574 28.2872 52.7574 28.8512Z" fill="#4A399D"/>
<path d="M55.7322 34.9788C55.7322 35.5429 55.2882 36.0001 54.7406 36.0001C54.1929 36.0001 53.749 35.5429 53.749 34.9788C53.749 34.4148 54.1929 33.9576 54.7406 33.9576C55.2882 33.9576 55.7322 34.4148 55.7322 34.9788Z" fill="#4A399D"/>
<path d="M55.7322 31.915C55.7322 32.4791 55.2882 32.9363 54.7406 32.9363C54.1929 32.9363 53.749 32.4791 53.749 31.915C53.749 31.351 54.1929 30.8938 54.7406 30.8938C55.2882 30.8938 55.7322 31.351 55.7322 31.915Z" fill="#4A399D"/>
<path d="M55.7322 28.8512C55.7322 29.4152 55.2882 29.8725 54.7406 29.8725C54.1929 29.8725 53.749 29.4152 53.749 28.8512C53.749 28.2872 54.1929 27.8299 54.7406 27.8299C55.2882 27.8299 55.7322 28.2872 55.7322 28.8512Z" fill="#4A399D"/>
<path d="M58.707 34.9788C58.707 35.5429 58.263 36.0001 57.7154 36.0001C57.1677 36.0001 56.7238 35.5429 56.7238 34.9788C56.7238 34.4148 57.1677 33.9576 57.7154 33.9576C58.263 33.9576 58.707 34.4148 58.707 34.9788Z" fill="#4A399D"/>
<path d="M58.707 31.915C58.707 32.4791 58.263 32.9363 57.7154 32.9363C57.1677 32.9363 56.7238 32.4791 56.7238 31.915C56.7238 31.351 57.1677 30.8938 57.7154 30.8938C58.263 30.8938 58.707 31.351 58.707 31.915Z" fill="#4A399D"/>
<path d="M58.707 28.8512C58.707 29.4152 58.263 29.8725 57.7154 29.8725C57.1677 29.8725 56.7238 29.4152 56.7238 28.8512C56.7238 28.2872 57.1677 27.8299 57.7154 27.8299C58.263 27.8299 58.707 28.2872 58.707 28.8512Z" fill="#4A399D"/>
<path d="M61.6818 34.9788C61.6818 35.5429 61.2378 36.0001 60.6902 36.0001C60.1425 36.0001 59.6986 35.5429 59.6986 34.9788C59.6986 34.4148 60.1425 33.9576 60.6902 33.9576C61.2378 33.9576 61.6818 34.4148 61.6818 34.9788Z" fill="#4A399D"/>
<path d="M61.6818 31.915C61.6818 32.4791 61.2378 32.9363 60.6902 32.9363C60.1425 32.9363 59.6986 32.4791 59.6986 31.915C59.6986 31.351 60.1425 30.8938 60.6902 30.8938C61.2378 30.8938 61.6818 31.351 61.6818 31.915Z" fill="#4A399D"/>
<path d="M61.6818 28.8512C61.6818 29.4152 61.2378 29.8725 60.6902 29.8725C60.1425 29.8725 59.6986 29.4152 59.6986 28.8512C59.6986 28.2872 60.1425 27.8299 60.6902 27.8299C61.2378 27.8299 61.6818 28.2872 61.6818 28.8512Z" fill="#4A399D"/>
<path d="M64.6565 34.9788C64.6565 35.5429 64.2126 36.0001 63.6649 36.0001C63.1173 36.0001 62.6733 35.5429 62.6733 34.9788C62.6733 34.4148 63.1173 33.9576 63.6649 33.9576C64.2126 33.9576 64.6565 34.4148 64.6565 34.9788Z" fill="#4A399D"/>
<path d="M64.6565 31.915C64.6565 32.4791 64.2126 32.9363 63.6649 32.9363C63.1173 32.9363 62.6733 32.4791 62.6733 31.915C62.6733 31.351 63.1173 30.8938 63.6649 30.8938C64.2126 30.8938 64.6565 31.351 64.6565 31.915Z" fill="#4A399D"/>
<path d="M64.6565 28.8512C64.6565 29.4152 64.2126 29.8725 63.6649 29.8725C63.1173 29.8725 62.6733 29.4152 62.6733 28.8512C62.6733 28.2872 63.1173 27.8299 63.6649 27.8299C64.2126 27.8299 64.6565 28.2872 64.6565 28.8512Z" fill="#4A399D"/>
<path d="M67.6313 34.9788C67.6313 35.5429 67.1874 36.0001 66.6397 36.0001C66.0921 36.0001 65.6481 35.5429 65.6481 34.9788C65.6481 34.4148 66.0921 33.9576 66.6397 33.9576C67.1874 33.9576 67.6313 34.4148 67.6313 34.9788Z" fill="#4A399D"/>
<path d="M67.6313 31.915C67.6313 32.4791 67.1874 32.9363 66.6397 32.9363C66.0921 32.9363 65.6481 32.4791 65.6481 31.915C65.6481 31.351 66.0921 30.8938 66.6397 30.8938C67.1874 30.8938 67.6313 31.351 67.6313 31.915Z" fill="#4A399D"/>
<path d="M67.6313 28.8512C67.6313 29.4152 67.1874 29.8725 66.6397 29.8725C66.0921 29.8725 65.6481 29.4152 65.6481 28.8512C65.6481 28.2872 66.0921 27.8299 66.6397 27.8299C67.1874 27.8299 67.6313 28.2872 67.6313 28.8512Z" fill="#4A399D"/>
<path d="M70.6061 34.9788C70.6061 35.5429 70.1622 36.0001 69.6145 36.0001C69.0669 36.0001 68.6229 35.5429 68.6229 34.9788C68.6229 34.4148 69.0669 33.9576 69.6145 33.9576C70.1622 33.9576 70.6061 34.4148 70.6061 34.9788Z" fill="#4A399D"/>
<path d="M70.6061 31.915C70.6061 32.4791 70.1622 32.9363 69.6145 32.9363C69.0669 32.9363 68.6229 32.4791 68.6229 31.915C68.6229 31.351 69.0669 30.8938 69.6145 30.8938C70.1622 30.8938 70.6061 31.351 70.6061 31.915Z" fill="#4A399D"/>
<path d="M70.6061 28.8512C70.6061 29.4152 70.1622 29.8725 69.6145 29.8725C69.0669 29.8725 68.6229 29.4152 68.6229 28.8512C68.6229 28.2872 69.0669 27.8299 69.6145 27.8299C70.1622 27.8299 70.6061 28.2872 70.6061 28.8512Z" fill="#4A399D"/>
<path d="M73.5809 34.9788C73.5809 35.5429 73.137 36.0001 72.5893 36.0001C72.0417 36.0001 71.5977 35.5429 71.5977 34.9788C71.5977 34.4148 72.0417 33.9576 72.5893 33.9576C73.137 33.9576 73.5809 34.4148 73.5809 34.9788Z" fill="#4A399D"/>
<path d="M73.5809 31.915C73.5809 32.4791 73.137 32.9363 72.5893 32.9363C72.0417 32.9363 71.5977 32.4791 71.5977 31.915C71.5977 31.351 72.0417 30.8938 72.5893 30.8938C73.137 30.8938 73.5809 31.351 73.5809 31.915Z" fill="#4A399D"/>
<path d="M73.5809 28.8512C73.5809 29.4152 73.137 29.8725 72.5893 29.8725C72.0417 29.8725 71.5977 29.4152 71.5977 28.8512C71.5977 28.2872 72.0417 27.8299 72.5893 27.8299C73.137 27.8299 73.5809 28.2872 73.5809 28.8512Z" fill="#4A399D"/>
<path d="M76.5558 34.9788C76.5558 35.5429 76.1118 36.0001 75.5642 36.0001C75.0165 36.0001 74.5725 35.5429 74.5725 34.9788C74.5725 34.4148 75.0165 33.9576 75.5642 33.9576C76.1118 33.9576 76.5558 34.4148 76.5558 34.9788Z" fill="#4A399D"/>
<path d="M76.5558 31.915C76.5558 32.4791 76.1118 32.9363 75.5642 32.9363C75.0165 32.9363 74.5725 32.4791 74.5725 31.915C74.5725 31.351 75.0165 30.8938 75.5642 30.8938C76.1118 30.8938 76.5558 31.351 76.5558 31.915Z" fill="#4A399D"/>
<path d="M76.5558 28.8512C76.5558 29.4152 76.1118 29.8725 75.5642 29.8725C75.0165 29.8725 74.5725 29.4152 74.5725 28.8512C74.5725 28.2872 75.0165 27.8299 75.5642 27.8299C76.1118 27.8299 76.5558 28.2872 76.5558 28.8512Z" fill="#4A399D"/>
<path d="M79.5306 34.9788C79.5306 35.5429 79.0866 36.0001 78.539 36.0001C77.9914 36.0001 77.5474 35.5429 77.5474 34.9788C77.5474 34.4148 77.9914 33.9576 78.539 33.9576C79.0866 33.9576 79.5306 34.4148 79.5306 34.9788Z" fill="#4A399D"/>
<path d="M79.5306 31.915C79.5306 32.4791 79.0866 32.9363 78.539 32.9363C77.9914 32.9363 77.5474 32.4791 77.5474 31.915C77.5474 31.351 77.9914 30.8938 78.539 30.8938C79.0866 30.8938 79.5306 31.351 79.5306 31.915Z" fill="#4A399D"/>
<path d="M79.5306 28.8512C79.5306 29.4152 79.0866 29.8725 78.539 29.8725C77.9914 29.8725 77.5474 29.4152 77.5474 28.8512C77.5474 28.2872 77.9914 27.8299 78.539 27.8299C79.0866 27.8299 79.5306 28.2872 79.5306 28.8512Z" fill="#4A399D"/>
<path d="M82.5054 34.9788C82.5054 35.5429 82.0614 36.0001 81.5138 36.0001C80.9661 36.0001 80.5222 35.5429 80.5222 34.9788C80.5222 34.4148 80.9661 33.9576 81.5138 33.9576C82.0614 33.9576 82.5054 34.4148 82.5054 34.9788Z" fill="#4A399D"/>
<path d="M82.5054 31.915C82.5054 32.4791 82.0614 32.9363 81.5138 32.9363C80.9661 32.9363 80.5222 32.4791 80.5222 31.915C80.5222 31.351 80.9661 30.8938 81.5138 30.8938C82.0614 30.8938 82.5054 31.351 82.5054 31.915Z" fill="#4A399D"/>
<path d="M82.5054 28.8512C82.5054 29.4152 82.0614 29.8725 81.5138 29.8725C80.9661 29.8725 80.5222 29.4152 80.5222 28.8512C80.5222 28.2872 80.9661 27.8299 81.5138 27.8299C82.0614 27.8299 82.5054 28.2872 82.5054 28.8512Z" fill="#4A399D"/>
<path d="M85.4802 34.9788C85.4802 35.5429 85.0362 36.0001 84.4886 36.0001C83.9409 36.0001 83.497 35.5429 83.497 34.9788C83.497 34.4148 83.9409 33.9576 84.4886 33.9576C85.0362 33.9576 85.4802 34.4148 85.4802 34.9788Z" fill="#4A399D"/>
<path d="M85.4802 31.915C85.4802 32.4791 85.0362 32.9363 84.4886 32.9363C83.9409 32.9363 83.497 32.4791 83.497 31.915C83.497 31.351 83.9409 30.8938 84.4886 30.8938C85.0362 30.8938 85.4802 31.351 85.4802 31.915Z" fill="#4A399D"/>
<path d="M85.4802 28.8512C85.4802 29.4152 85.0362 29.8725 84.4886 29.8725C83.9409 29.8725 83.497 29.4152 83.497 28.8512C83.497 28.2872 83.9409 27.8299 84.4886 27.8299C85.0362 27.8299 85.4802 28.2872 85.4802 28.8512Z" fill="#4A399D"/>
<path d="M88.455 34.9788C88.455 35.5429 88.011 36.0001 87.4634 36.0001C86.9157 36.0001 86.4718 35.5429 86.4718 34.9788C86.4718 34.4148 86.9157 33.9576 87.4634 33.9576C88.011 33.9576 88.455 34.4148 88.455 34.9788Z" fill="#4A399D"/>
<path d="M88.455 31.915C88.455 32.4791 88.011 32.9363 87.4634 32.9363C86.9157 32.9363 86.4718 32.4791 86.4718 31.915C86.4718 31.351 86.9157 30.8938 87.4634 30.8938C88.011 30.8938 88.455 31.351 88.455 31.915Z" fill="#4A399D"/>
<path d="M88.455 28.8512C88.455 29.4152 88.011 29.8725 87.4634 29.8725C86.9157 29.8725 86.4718 29.4152 86.4718 28.8512C86.4718 28.2872 86.9157 27.8299 87.4634 27.8299C88.011 27.8299 88.455 28.2872 88.455 28.8512Z" fill="#4A399D"/>
<path d="M91.4297 34.9788C91.4297 35.5429 90.9858 36.0001 90.4381 36.0001C89.8905 36.0001 89.4466 35.5429 89.4466 34.9788C89.4466 34.4148 89.8905 33.9576 90.4381 33.9576C90.9858 33.9576 91.4297 34.4148 91.4297 34.9788Z" fill="#4A399D"/>
<path d="M91.4297 31.915C91.4297 32.4791 90.9858 32.9363 90.4381 32.9363C89.8905 32.9363 89.4466 32.4791 89.4466 31.915C89.4466 31.351 89.8905 30.8938 90.4381 30.8938C90.9858 30.8938 91.4297 31.351 91.4297 31.915Z" fill="#4A399D"/>
<path d="M91.4297 28.8512C91.4297 29.4152 90.9858 29.8725 90.4381 29.8725C89.8905 29.8725 89.4466 29.4152 89.4466 28.8512C89.4466 28.2872 89.8905 27.8299 90.4381 27.8299C90.9858 27.8299 91.4297 28.2872 91.4297 28.8512Z" fill="#4A399D"/>
<path d="M94.4045 34.9788C94.4045 35.5429 93.9605 36.0001 93.4129 36.0001C92.8653 36.0001 92.4213 35.5429 92.4213 34.9788C92.4213 34.4148 92.8653 33.9576 93.4129 33.9576C93.9605 33.9576 94.4045 34.4148 94.4045 34.9788Z" fill="#4A399D"/>
<path d="M94.4045 31.915C94.4045 32.4791 93.9605 32.9363 93.4129 32.9363C92.8653 32.9363 92.4213 32.4791 92.4213 31.915C92.4213 31.351 92.8653 30.8938 93.4129 30.8938C93.9605 30.8938 94.4045 31.351 94.4045 31.915Z" fill="#4A399D"/>
<path d="M94.4045 28.8512C94.4045 29.4152 93.9605 29.8725 93.4129 29.8725C92.8653 29.8725 92.4213 29.4152 92.4213 28.8512C92.4213 28.2872 92.8653 27.8299 93.4129 27.8299C93.9605 27.8299 94.4045 28.2872 94.4045 28.8512Z" fill="#4A399D"/>
<path d="M97.3793 34.9788C97.3793 35.5429 96.9353 36.0001 96.3877 36.0001C95.84 36.0001 95.3961 35.5429 95.3961 34.9788C95.3961 34.4148 95.84 33.9576 96.3877 33.9576C96.9353 33.9576 97.3793 34.4148 97.3793 34.9788Z" fill="#4A399D"/>
<path d="M97.3793 31.915C97.3793 32.4791 96.9353 32.9363 96.3877 32.9363C95.84 32.9363 95.3961 32.4791 95.3961 31.915C95.3961 31.351 95.84 30.8938 96.3877 30.8938C96.9353 30.8938 97.3793 31.351 97.3793 31.915Z" fill="#4A399D"/>
<path d="M97.3793 28.8512C97.3793 29.4152 96.9353 29.8725 96.3877 29.8725C95.84 29.8725 95.3961 29.4152 95.3961 28.8512C95.3961 28.2872 95.84 27.8299 96.3877 27.8299C96.9353 27.8299 97.3793 28.2872 97.3793 28.8512Z" fill="#4A399D"/>
<path d="M100.354 34.9788C100.354 35.5429 99.9101 36.0001 99.3625 36.0001C98.8148 36.0001 98.3709 35.5429 98.3709 34.9788C98.3709 34.4148 98.8148 33.9576 99.3625 33.9576C99.9101 33.9576 100.354 34.4148 100.354 34.9788Z" fill="#4A399D"/>
<path d="M100.354 31.915C100.354 32.4791 99.9101 32.9363 99.3625 32.9363C98.8148 32.9363 98.3709 32.4791 98.3709 31.915C98.3709 31.351 98.8148 30.8938 99.3625 30.8938C99.9101 30.8938 100.354 31.351 100.354 31.915Z" fill="#4A399D"/>
<path d="M100.354 28.8512C100.354 29.4152 99.9101 29.8725 99.3625 29.8725C98.8148 29.8725 98.3709 29.4152 98.3709 28.8512C98.3709 28.2872 98.8148 27.8299 99.3625 27.8299C99.9101 27.8299 100.354 28.2872 100.354 28.8512Z" fill="#4A399D"/>
<path d="M103.329 34.9788C103.329 35.5429 102.885 36.0001 102.337 36.0001C101.79 36.0001 101.346 35.5429 101.346 34.9788C101.346 34.4148 101.79 33.9576 102.337 33.9576C102.885 33.9576 103.329 34.4148 103.329 34.9788Z" fill="#4A399D"/>
<path d="M103.329 31.915C103.329 32.4791 102.885 32.9363 102.337 32.9363C101.79 32.9363 101.346 32.4791 101.346 31.915C101.346 31.351 101.79 30.8938 102.337 30.8938C102.885 30.8938 103.329 31.351 103.329 31.915Z" fill="#4A399D"/>
<path d="M103.329 28.8512C103.329 29.4152 102.885 29.8725 102.337 29.8725C101.79 29.8725 101.346 29.4152 101.346 28.8512C101.346 28.2872 101.79 27.8299 102.337 27.8299C102.885 27.8299 103.329 28.2872 103.329 28.8512Z" fill="#4A399D"/>
<path d="M106.304 34.9788C106.304 35.5429 105.86 36.0001 105.312 36.0001C104.764 36.0001 104.32 35.5429 104.32 34.9788C104.32 34.4148 104.764 33.9576 105.312 33.9576C105.86 33.9576 106.304 34.4148 106.304 34.9788Z" fill="#4A399D"/>
<path d="M106.304 31.915C106.304 32.4791 105.86 32.9363 105.312 32.9363C104.764 32.9363 104.32 32.4791 104.32 31.915C104.32 31.351 104.764 30.8938 105.312 30.8938C105.86 30.8938 106.304 31.351 106.304 31.915Z" fill="#4A399D"/>
<path d="M106.304 28.8512C106.304 29.4152 105.86 29.8725 105.312 29.8725C104.764 29.8725 104.32 29.4152 104.32 28.8512C104.32 28.2872 104.764 27.8299 105.312 27.8299C105.86 27.8299 106.304 28.2872 106.304 28.8512Z" fill="#4A399D"/>
<path d="M109.278 34.9788C109.278 35.5429 108.834 36.0001 108.287 36.0001C107.739 36.0001 107.295 35.5429 107.295 34.9788C107.295 34.4148 107.739 33.9576 108.287 33.9576C108.834 33.9576 109.278 34.4148 109.278 34.9788Z" fill="#4A399D"/>
<path d="M109.278 31.915C109.278 32.4791 108.834 32.9363 108.287 32.9363C107.739 32.9363 107.295 32.4791 107.295 31.915C107.295 31.351 107.739 30.8938 108.287 30.8938C108.834 30.8938 109.278 31.351 109.278 31.915Z" fill="#4A399D"/>
<path d="M109.278 28.8512C109.278 29.4152 108.834 29.8725 108.287 29.8725C107.739 29.8725 107.295 29.4152 107.295 28.8512C107.295 28.2872 107.739 27.8299 108.287 27.8299C108.834 27.8299 109.278 28.2872 109.278 28.8512Z" fill="#4A399D"/>
<path d="M112.253 34.9788C112.253 35.5429 111.809 36.0001 111.262 36.0001C110.714 36.0001 110.27 35.5429 110.27 34.9788C110.27 34.4148 110.714 33.9576 111.262 33.9576C111.809 33.9576 112.253 34.4148 112.253 34.9788Z" fill="#4A399D"/>
<path d="M112.253 31.915C112.253 32.4791 111.809 32.9363 111.262 32.9363C110.714 32.9363 110.27 32.4791 110.27 31.915C110.27 31.351 110.714 30.8938 111.262 30.8938C111.809 30.8938 112.253 31.351 112.253 31.915Z" fill="#4A399D"/>
<path d="M112.253 28.8512C112.253 29.4152 111.809 29.8725 111.262 29.8725C110.714 29.8725 110.27 29.4152 110.27 28.8512C110.27 28.2872 110.714 27.8299 111.262 27.8299C111.809 27.8299 112.253 28.2872 112.253 28.8512Z" fill="#4A399D"/>
<path d="M115.228 34.9788C115.228 35.5429 114.784 36.0001 114.236 36.0001C113.689 36.0001 113.245 35.5429 113.245 34.9788C113.245 34.4148 113.689 33.9576 114.236 33.9576C114.784 33.9576 115.228 34.4148 115.228 34.9788Z" fill="#4A399D"/>
<path d="M115.228 31.915C115.228 32.4791 114.784 32.9363 114.236 32.9363C113.689 32.9363 113.245 32.4791 113.245 31.915C113.245 31.351 113.689 30.8938 114.236 30.8938C114.784 30.8938 115.228 31.351 115.228 31.915Z" fill="#4A399D"/>
<path d="M115.228 28.8512C115.228 29.4152 114.784 29.8725 114.236 29.8725C113.689 29.8725 113.245 29.4152 113.245 28.8512C113.245 28.2872 113.689 27.8299 114.236 27.8299C114.784 27.8299 115.228 28.2872 115.228 28.8512Z" fill="#4A399D"/>
<path d="M118.203 34.9788C118.203 35.5429 117.759 36.0001 117.211 36.0001C116.664 36.0001 116.22 35.5429 116.22 34.9788C116.22 34.4148 116.664 33.9576 117.211 33.9576C117.759 33.9576 118.203 34.4148 118.203 34.9788Z" fill="#4A399D"/>
<path d="M118.203 31.915C118.203 32.4791 117.759 32.9363 117.211 32.9363C116.664 32.9363 116.22 32.4791 116.22 31.915C116.22 31.351 116.664 30.8938 117.211 30.8938C117.759 30.8938 118.203 31.351 118.203 31.915Z" fill="#4A399D"/>
<path d="M118.203 28.8512C118.203 29.4152 117.759 29.8725 117.211 29.8725C116.664 29.8725 116.22 29.4152 116.22 28.8512C116.22 28.2872 116.664 27.8299 117.211 27.8299C117.759 27.8299 118.203 28.2872 118.203 28.8512Z" fill="#4A399D"/>
<path d="M121.178 34.9788C121.178 35.5429 120.734 36.0001 120.186 36.0001C119.638 36.0001 119.194 35.5429 119.194 34.9788C119.194 34.4148 119.638 33.9576 120.186 33.9576C120.734 33.9576 121.178 34.4148 121.178 34.9788Z" fill="#4A399D"/>
<path d="M121.178 31.915C121.178 32.4791 120.734 32.9363 120.186 32.9363C119.638 32.9363 119.194 32.4791 119.194 31.915C119.194 31.351 119.638 30.8938 120.186 30.8938C120.734 30.8938 121.178 31.351 121.178 31.915Z" fill="#4A399D"/>
<path d="M121.178 28.8512C121.178 29.4152 120.734 29.8725 120.186 29.8725C119.638 29.8725 119.194 29.4152 119.194 28.8512C119.194 28.2872 119.638 27.8299 120.186 27.8299C120.734 27.8299 121.178 28.2872 121.178 28.8512Z" fill="#4A399D"/>
<path d="M124.152 34.9788C124.152 35.5429 123.708 36.0001 123.161 36.0001C122.613 36.0001 122.169 35.5429 122.169 34.9788C122.169 34.4148 122.613 33.9576 123.161 33.9576C123.708 33.9576 124.152 34.4148 124.152 34.9788Z" fill="#4A399D"/>
<path d="M124.152 31.915C124.152 32.4791 123.708 32.9363 123.161 32.9363C122.613 32.9363 122.169 32.4791 122.169 31.915C122.169 31.351 122.613 30.8938 123.161 30.8938C123.708 30.8938 124.152 31.351 124.152 31.915Z" fill="#4A399D"/>
<path d="M124.152 28.8512C124.152 29.4152 123.708 29.8725 123.161 29.8725C122.613 29.8725 122.169 29.4152 122.169 28.8512C122.169 28.2872 122.613 27.8299 123.161 27.8299C123.708 27.8299 124.152 28.2872 124.152 28.8512Z" fill="#4A399D"/>
<path d="M127.127 34.9788C127.127 35.5429 126.683 36.0001 126.136 36.0001C125.588 36.0001 125.144 35.5429 125.144 34.9788C125.144 34.4148 125.588 33.9576 126.136 33.9576C126.683 33.9576 127.127 34.4148 127.127 34.9788Z" fill="#4A399D"/>
<path d="M127.127 31.915C127.127 32.4791 126.683 32.9363 126.136 32.9363C125.588 32.9363 125.144 32.4791 125.144 31.915C125.144 31.351 125.588 30.8938 126.136 30.8938C126.683 30.8938 127.127 31.351 127.127 31.915Z" fill="#4A399D"/>
<path d="M127.127 28.8512C127.127 29.4152 126.683 29.8725 126.136 29.8725C125.588 29.8725 125.144 29.4152 125.144 28.8512C125.144 28.2872 125.588 27.8299 126.136 27.8299C126.683 27.8299 127.127 28.2872 127.127 28.8512Z" fill="#4A399D"/>
<path d="M130.102 34.9788C130.102 35.5429 129.658 36.0001 129.11 36.0001C128.563 36.0001 128.119 35.5429 128.119 34.9788C128.119 34.4148 128.563 33.9576 129.11 33.9576C129.658 33.9576 130.102 34.4148 130.102 34.9788Z" fill="#4A399D"/>
<path d="M130.102 31.915C130.102 32.4791 129.658 32.9363 129.11 32.9363C128.563 32.9363 128.119 32.4791 128.119 31.915C128.119 31.351 128.563 30.8938 129.11 30.8938C129.658 30.8938 130.102 31.351 130.102 31.915Z" fill="#4A399D"/>
<path d="M130.102 28.8512C130.102 29.4152 129.658 29.8725 129.11 29.8725C128.563 29.8725 128.119 29.4152 128.119 28.8512C128.119 28.2872 128.563 27.8299 129.11 27.8299C129.658 27.8299 130.102 28.2872 130.102 28.8512Z" fill="#4A399D"/>
<path d="M133.077 34.9788C133.077 35.5429 132.633 36.0001 132.085 36.0001C131.538 36.0001 131.094 35.5429 131.094 34.9788C131.094 34.4148 131.538 33.9576 132.085 33.9576C132.633 33.9576 133.077 34.4148 133.077 34.9788Z" fill="#4A399D"/>
<path d="M133.077 31.915C133.077 32.4791 132.633 32.9363 132.085 32.9363C131.538 32.9363 131.094 32.4791 131.094 31.915C131.094 31.351 131.538 30.8938 132.085 30.8938C132.633 30.8938 133.077 31.351 133.077 31.915Z" fill="#4A399D"/>
<path d="M133.077 28.8512C133.077 29.4152 132.633 29.8725 132.085 29.8725C131.538 29.8725 131.094 29.4152 131.094 28.8512C131.094 28.2872 131.538 27.8299 132.085 27.8299C132.633 27.8299 133.077 28.2872 133.077 28.8512Z" fill="#4A399D"/>
<path d="M136.052 34.9788C136.052 35.5429 135.608 36.0001 135.06 36.0001C134.512 36.0001 134.068 35.5429 134.068 34.9788C134.068 34.4148 134.512 33.9576 135.06 33.9576C135.608 33.9576 136.052 34.4148 136.052 34.9788Z" fill="#4A399D"/>
<path d="M136.052 31.915C136.052 32.4791 135.608 32.9363 135.06 32.9363C134.512 32.9363 134.068 32.4791 134.068 31.915C134.068 31.351 134.512 30.8938 135.06 30.8938C135.608 30.8938 136.052 31.351 136.052 31.915Z" fill="#4A399D"/>
<path d="M136.052 28.8512C136.052 29.4152 135.608 29.8725 135.06 29.8725C134.512 29.8725 134.068 29.4152 134.068 28.8512C134.068 28.2872 134.512 27.8299 135.06 27.8299C135.608 27.8299 136.052 28.2872 136.052 28.8512Z" fill="#4A399D"/>
<path d="M139.026 34.9788C139.026 35.5429 138.582 36.0001 138.035 36.0001C137.487 36.0001 137.043 35.5429 137.043 34.9788C137.043 34.4148 137.487 33.9576 138.035 33.9576C138.582 33.9576 139.026 34.4148 139.026 34.9788Z" fill="#4A399D"/>
<path d="M139.026 31.915C139.026 32.4791 138.582 32.9363 138.035 32.9363C137.487 32.9363 137.043 32.4791 137.043 31.915C137.043 31.351 137.487 30.8938 138.035 30.8938C138.582 30.8938 139.026 31.351 139.026 31.915Z" fill="#4A399D"/>
<path d="M139.026 28.8512C139.026 29.4152 138.582 29.8725 138.035 29.8725C137.487 29.8725 137.043 29.4152 137.043 28.8512C137.043 28.2872 137.487 27.8299 138.035 27.8299C138.582 27.8299 139.026 28.2872 139.026 28.8512Z" fill="#4A399D"/>
<path d="M142.001 34.9788C142.001 35.5429 141.557 36.0001 141.01 36.0001C140.462 36.0001 140.018 35.5429 140.018 34.9788C140.018 34.4148 140.462 33.9576 141.01 33.9576C141.557 33.9576 142.001 34.4148 142.001 34.9788Z" fill="#4A399D"/>
<path d="M142.001 31.915C142.001 32.4791 141.557 32.9363 141.01 32.9363C140.462 32.9363 140.018 32.4791 140.018 31.915C140.018 31.351 140.462 30.8938 141.01 30.8938C141.557 30.8938 142.001 31.351 142.001 31.915Z" fill="#4A399D"/>
<path d="M142.001 28.8512C142.001 29.4152 141.557 29.8725 141.01 29.8725C140.462 29.8725 140.018 29.4152 140.018 28.8512C140.018 28.2872 140.462 27.8299 141.01 27.8299C141.557 27.8299 142.001 28.2872 142.001 28.8512Z" fill="#4A399D"/>
<path d="M136.052 25.7874C136.052 26.3514 135.608 26.8087 135.06 26.8087C134.512 26.8087 134.068 26.3514 134.068 25.7874C134.068 25.2234 134.512 24.7661 135.06 24.7661C135.608 24.7661 136.052 25.2234 136.052 25.7874Z" fill="#4A399D"/>
<path d="M136.052 22.7236C136.052 23.2876 135.608 23.7449 135.06 23.7449C134.512 23.7449 134.068 23.2876 134.068 22.7236C134.068 22.1595 134.512 21.7023 135.06 21.7023C135.608 21.7023 136.052 22.1595 136.052 22.7236Z" fill="#4A399D"/>
<path d="M136.052 19.6598C136.052 20.2238 135.608 20.681 135.06 20.681C134.512 20.681 134.068 20.2238 134.068 19.6598C134.068 19.0957 134.512 18.6385 135.06 18.6385C135.608 18.6385 136.052 19.0957 136.052 19.6598Z" fill="#4A399D"/>
<path d="M139.026 25.7874C139.026 26.3514 138.582 26.8087 138.035 26.8087C137.487 26.8087 137.043 26.3514 137.043 25.7874C137.043 25.2234 137.487 24.7661 138.035 24.7661C138.582 24.7661 139.026 25.2234 139.026 25.7874Z" fill="#4A399D"/>
<path d="M139.026 22.7236C139.026 23.2876 138.582 23.7449 138.035 23.7449C137.487 23.7449 137.043 23.2876 137.043 22.7236C137.043 22.1595 137.487 21.7023 138.035 21.7023C138.582 21.7023 139.026 22.1595 139.026 22.7236Z" fill="#4A399D"/>
<path d="M139.026 19.6598C139.026 20.2238 138.582 20.681 138.035 20.681C137.487 20.681 137.043 20.2238 137.043 19.6598C137.043 19.0957 137.487 18.6385 138.035 18.6385C138.582 18.6385 139.026 19.0957 139.026 19.6598Z" fill="#4A399D"/>
<path d="M142.001 25.7874C142.001 26.3514 141.557 26.8087 141.01 26.8087C140.462 26.8087 140.018 26.3514 140.018 25.7874C140.018 25.2234 140.462 24.7661 141.01 24.7661C141.557 24.7661 142.001 25.2234 142.001 25.7874Z" fill="#4A399D"/>
<path d="M142.001 22.7236C142.001 23.2876 141.557 23.7449 141.01 23.7449C140.462 23.7449 140.018 23.2876 140.018 22.7236C140.018 22.1595 140.462 21.7023 141.01 21.7023C141.557 21.7023 142.001 22.1595 142.001 22.7236Z" fill="#4A399D"/>
<path d="M142.001 19.6598C142.001 20.2238 141.557 20.681 141.01 20.681C140.462 20.681 140.018 20.2238 140.018 19.6598C140.018 19.0957 140.462 18.6385 141.01 18.6385C141.557 18.6385 142.001 19.0957 142.001 19.6598Z" fill="#4A399D"/>
<path d="M136.052 16.596C136.052 17.16 135.608 17.6172 135.06 17.6172C134.512 17.6172 134.068 17.16 134.068 16.596C134.068 16.0319 134.512 15.5747 135.06 15.5747C135.608 15.5747 136.052 16.0319 136.052 16.596Z" fill="#4A399D"/>
<path d="M136.052 13.5321C136.052 14.0962 135.608 14.5534 135.06 14.5534C134.512 14.5534 134.068 14.0962 134.068 13.5321C134.068 12.9681 134.512 12.5109 135.06 12.5109C135.608 12.5109 136.052 12.9681 136.052 13.5321Z" fill="#4A399D"/>
<path d="M136.052 10.4683C136.052 11.0324 135.608 11.4896 135.06 11.4896C134.512 11.4896 134.068 11.0324 134.068 10.4683C134.068 9.9043 134.512 9.44706 135.06 9.44706C135.608 9.44706 136.052 9.9043 136.052 10.4683Z" fill="#4A399D"/>
<path d="M139.026 16.596C139.026 17.16 138.582 17.6172 138.035 17.6172C137.487 17.6172 137.043 17.16 137.043 16.596C137.043 16.0319 137.487 15.5747 138.035 15.5747C138.582 15.5747 139.026 16.0319 139.026 16.596Z" fill="#4A399D"/>
<path d="M139.026 13.5321C139.026 14.0962 138.582 14.5534 138.035 14.5534C137.487 14.5534 137.043 14.0962 137.043 13.5321C137.043 12.9681 137.487 12.5109 138.035 12.5109C138.582 12.5109 139.026 12.9681 139.026 13.5321Z" fill="#4A399D"/>
<path d="M139.026 10.4683C139.026 11.0324 138.582 11.4896 138.035 11.4896C137.487 11.4896 137.043 11.0324 137.043 10.4683C137.043 9.9043 137.487 9.44706 138.035 9.44706C138.582 9.44706 139.026 9.9043 139.026 10.4683Z" fill="#4A399D"/>
<path d="M142.001 16.596C142.001 17.16 141.557 17.6172 141.01 17.6172C140.462 17.6172 140.018 17.16 140.018 16.596C140.018 16.0319 140.462 15.5747 141.01 15.5747C141.557 15.5747 142.001 16.0319 142.001 16.596Z" fill="#4A399D"/>
<path d="M142.001 13.5321C142.001 14.0962 141.557 14.5534 141.01 14.5534C140.462 14.5534 140.018 14.0962 140.018 13.5321C140.018 12.9681 140.462 12.5109 141.01 12.5109C141.557 12.5109 142.001 12.9681 142.001 13.5321Z" fill="#4A399D"/>
<path d="M142.001 10.4683C142.001 11.0324 141.557 11.4896 141.01 11.4896C140.462 11.4896 140.018 11.0324 140.018 10.4683C140.018 9.9043 140.462 9.44706 141.01 9.44706C141.557 9.44706 142.001 9.9043 142.001 10.4683Z" fill="#4A399D"/>
<path d="M136.052 7.40451C136.052 7.96855 135.608 8.42579 135.06 8.42579C134.512 8.42579 134.068 7.96855 134.068 7.40451C134.068 6.84048 134.512 6.38324 135.06 6.38324C135.608 6.38324 136.052 6.84048 136.052 7.40451Z" fill="#4A399D"/>
<path d="M136.052 4.3407C136.052 4.90473 135.608 5.36197 135.06 5.36197C134.512 5.36197 134.068 4.90473 134.068 4.3407C134.068 3.77667 134.512 3.31943 135.06 3.31943C135.608 3.31943 136.052 3.77667 136.052 4.3407Z" fill="#4A399D"/>
<path d="M136.052 1.27689C136.052 1.84092 135.608 2.29816 135.06 2.29816C134.512 2.29816 134.068 1.84092 134.068 1.27689C134.068 0.712854 134.512 0.255615 135.06 0.255615C135.608 0.255615 136.052 0.712854 136.052 1.27689Z" fill="#4A399D"/>
<path d="M139.026 7.40451C139.026 7.96855 138.582 8.42579 138.035 8.42579C137.487 8.42579 137.043 7.96855 137.043 7.40451C137.043 6.84048 137.487 6.38324 138.035 6.38324C138.582 6.38324 139.026 6.84048 139.026 7.40451Z" fill="#4A399D"/>
<path d="M139.026 4.3407C139.026 4.90473 138.582 5.36197 138.035 5.36197C137.487 5.36197 137.043 4.90473 137.043 4.3407C137.043 3.77667 137.487 3.31943 138.035 3.31943C138.582 3.31943 139.026 3.77667 139.026 4.3407Z" fill="#4A399D"/>
<path d="M139.026 1.27689C139.026 1.84092 138.582 2.29816 138.035 2.29816C137.487 2.29816 137.043 1.84092 137.043 1.27689C137.043 0.712854 137.487 0.255615 138.035 0.255615C138.582 0.255615 139.026 0.712854 139.026 1.27689Z" fill="#4A399D"/>
<path d="M142.001 7.40451C142.001 7.96855 141.557 8.42579 141.01 8.42579C140.462 8.42579 140.018 7.96855 140.018 7.40451C140.018 6.84048 140.462 6.38324 141.01 6.38324C141.557 6.38324 142.001 6.84048 142.001 7.40451Z" fill="#4A399D"/>
<path d="M142.001 4.3407C142.001 4.90473 141.557 5.36197 141.01 5.36197C140.462 5.36197 140.018 4.90473 140.018 4.3407C140.018 3.77667 140.462 3.31943 141.01 3.31943C141.557 3.31943 142.001 3.77667 142.001 4.3407Z" fill="#4A399D"/>
<path d="M142.001 1.27689C142.001 1.84092 141.557 2.29816 141.01 2.29816C140.462 2.29816 140.018 1.84092 140.018 1.27689C140.018 0.712854 140.462 0.255615 141.01 0.255615C141.557 0.255615 142.001 0.712854 142.001 1.27689Z" fill="#4A399D"/>
<path fill-rule="evenodd" clip-rule="evenodd" d="M133.077 1.27689C133.077 1.84092 132.633 2.29816 132.085 2.29816V0.255615C132.633 0.255615 133.077 0.712854 133.077 1.27689ZM133.077 4.3407C133.077 4.90473 132.633 5.36197 132.085 5.36197V3.31943C132.633 3.31943 133.077 3.77667 133.077 4.3407ZM133.077 7.40451C133.077 7.96855 132.633 8.42579 132.085 8.42579V6.38324C132.633 6.38324 133.077 6.84048 133.077 7.40451ZM133.077 10.4683C133.077 11.0324 132.633 11.4896 132.085 11.4896V9.44706C132.633 9.44706 133.077 9.9043 133.077 10.4683ZM133.077 13.5321C133.077 14.0962 132.633 14.5534 132.085 14.5534V12.5109C132.633 12.5109 133.077 12.9681 133.077 13.5321ZM133.077 16.596C133.077 17.16 132.633 17.6172 132.085 17.6172V15.5747C132.633 15.5747 133.077 16.0319 133.077 16.596ZM133.077 19.6598C133.077 20.2238 132.633 20.681 132.085 20.681V18.6385C132.633 18.6385 133.077 19.0957 133.077 19.6598ZM133.077 22.7236C133.077 23.2876 132.633 23.7449 132.085 23.7449V21.7023C132.633 21.7023 133.077 22.1595 133.077 22.7236ZM133.077 25.7874C133.077 26.3514 132.633 26.8087 132.085 26.8087V24.7661C132.633 24.7661 133.077 25.2234 133.077 25.7874ZM24.9927 29.8725C24.445 29.8725 24.0011 29.4152 24.0011 28.8512C24.0011 28.2872 24.445 27.8299 24.9927 27.8299C25.5403 27.8299 25.9843 28.2872 25.9843 28.8512C25.9843 29.4152 25.5403 29.8725 24.9927 29.8725ZM24.0011 34.9788C24.0011 34.4148 24.445 33.9576 24.9927 33.9576C25.5403 33.9576 25.9843 34.4148 25.9843 34.9788C25.9843 35.5429 25.5403 36.0001 24.9927 36.0001C24.445 36.0001 24.0011 35.5429 24.0011 34.9788ZM141.01 33.9576C141.557 33.9576 142.001 34.4148 142.001 34.9788C142.001 35.5429 141.557 36.0001 141.01 36.0001C140.462 36.0001 140.018 35.5429 140.018 34.9788C140.018 34.4148 140.462 33.9576 141.01 33.9576ZM141.01 2.29816C141.557 2.29816 142.001 1.84092 142.001 1.27689C142.001 0.712854 141.557 0.255615 141.01 0.255615C140.462 0.255615 140.018 0.712854 140.018 1.27689C140.018 1.84092 140.462 2.29816 141.01 2.29816ZM141.01 5.36197C141.557 5.36197 142.001 4.90473 142.001 4.3407C142.001 3.77667 141.557 3.31943 141.01 3.31943C140.462 3.31943 140.018 3.77667 140.018 4.3407C140.018 4.90473 140.462 5.36197 141.01 5.36197ZM141.01 8.42579C141.557 8.42579 142.001 7.96855 142.001 7.40451C142.001 6.84048 141.557 6.38324 141.01 6.38324C140.462 6.38324 140.018 6.84048 140.018 7.40451C140.018 7.96855 140.462 8.42579 141.01 8.42579ZM141.01 11.4896C141.557 11.4896 142.001 11.0324 142.001 10.4683C142.001 9.9043 141.557 9.44706 141.01 9.44706C140.462 9.44706 140.018 9.9043 140.018 10.4683C140.018 11.0324 140.462 11.4896 141.01 11.4896ZM141.01 14.5534C141.557 14.5534 142.001 14.0962 142.001 13.5321C142.001 12.9681 141.557 12.5109 141.01 12.5109C140.462 12.5109 140.018 12.9681 140.018 13.5321C140.018 14.0962 140.462 14.5534 141.01 14.5534ZM141.01 17.6172C141.557 17.6172 142.001 17.16 142.001 16.596C142.001 16.0319 141.557 15.5747 141.01 15.5747C140.462 15.5747 140.018 16.0319 140.018 16.596C140.018 17.16 140.462 17.6172 141.01 17.6172ZM141.01 20.681C141.557 20.681 142.001 20.2238 142.001 19.6598C142.001 19.0957 141.557 18.6385 141.01 18.6385C140.462 18.6385 140.018 19.0957 140.018 19.6598C140.018 20.2238 140.462 20.681 141.01 20.681ZM141.01 23.7449C141.557 23.7449 142.001 23.2876 142.001 22.7236C142.001 22.1595 141.557 21.7023 141.01 21.7023C140.462 21.7023 140.018 22.1595 140.018 22.7236C140.018 23.2876 140.462 23.7449 141.01 23.7449ZM141.01 26.8087C141.557 26.8087 142.001 26.3514 142.001 25.7874C142.001 25.2234 141.557 24.7661 141.01 24.7661C140.462 24.7661 140.018 25.2234 140.018 25.7874C140.018 26.3514 140.462 26.8087 141.01 26.8087ZM141.01 29.8725C141.557 29.8725 142.001 29.4152 142.001 28.8512C142.001 28.2872 141.557 27.8299 141.01 27.8299C140.462 27.8299 140.018 28.2872 140.018 28.8512C140.018 29.4152 140.462 29.8725 141.01 29.8725ZM141.01 32.9363C141.557 32.9363 142.001 32.4791 142.001 31.915C142.001 31.351 141.557 30.8938 141.01 30.8938C140.462 30.8938 140.018 31.351 140.018 31.915C140.018 32.4791 140.462 32.9363 141.01 32.9363ZM137.043 34.9788C137.043 35.5429 137.487 36.0001 138.035 36.0001C138.582 36.0001 139.026 35.5429 139.026 34.9788C139.026 34.4148 138.582 33.9576 138.035 33.9576C137.487 33.9576 137.043 34.4148 137.043 34.9788ZM134.068 34.9788C134.068 35.5429 134.512 36.0001 135.06 36.0001C135.608 36.0001 136.052 35.5429 136.052 34.9788C136.052 34.4148 135.608 33.9576 135.06 33.9576C134.512 33.9576 134.068 34.4148 134.068 34.9788ZM131.094 34.9788C131.094 35.5429 131.538 36.0001 132.085 36.0001C132.633 36.0001 133.077 35.5429 133.077 34.9788C133.077 34.4148 132.633 33.9576 132.085 33.9576C131.538 33.9576 131.094 34.4148 131.094 34.9788ZM128.119 34.9788C128.119 35.5429 128.563 36.0001 129.11 36.0001C129.658 36.0001 130.102 35.5429 130.102 34.9788C130.102 34.4148 129.658 33.9576 129.11 33.9576C128.563 33.9576 128.119 34.4148 128.119 34.9788ZM125.144 34.9788C125.144 35.5429 125.588 36.0001 126.136 36.0001C126.683 36.0001 127.127 35.5429 127.127 34.9788C127.127 34.4148 126.683 33.9576 126.136 33.9576C125.588 33.9576 125.144 34.4148 125.144 34.9788ZM122.169 34.9788C122.169 35.5429 122.613 36.0001 123.161 36.0001C123.708 36.0001 124.152 35.5429 124.152 34.9788C124.152 34.4148 123.708 33.9576 123.161 33.9576C122.613 33.9576 122.169 34.4148 122.169 34.9788ZM119.194 34.9788C119.194 35.5429 119.638 36.0001 120.186 36.0001C120.734 36.0001 121.178 35.5429 121.178 34.9788C121.178 34.4148 120.734 33.9576 120.186 33.9576C119.638 33.9576 119.194 34.4148 119.194 34.9788ZM116.22 34.9788C116.22 35.5429 116.664 36.0001 117.211 36.0001C117.759 36.0001 118.203 35.5429 118.203 34.9788C118.203 34.4148 117.759 33.9576 117.211 33.9576C116.664 33.9576 116.22 34.4148 116.22 34.9788ZM113.245 34.9788C113.245 35.5429 113.689 36.0001 114.236 36.0001C114.784 36.0001 115.228 35.5429 115.228 34.9788C115.228 34.4148 114.784 33.9576 114.236 33.9576C113.689 33.9576 113.245 34.4148 113.245 34.9788ZM110.27 34.9788C110.27 35.5429 110.714 36.0001 111.262 36.0001C111.809 36.0001 112.253 35.5429 112.253 34.9788C112.253 34.4148 111.809 33.9576 111.262 33.9576C110.714 33.9576 110.27 34.4148 110.27 34.9788ZM107.295 34.9788C107.295 35.5429 107.739 36.0001 108.287 36.0001C108.834 36.0001 109.278 35.5429 109.278 34.9788C109.278 34.4148 108.834 33.9576 108.287 33.9576C107.739 33.9576 107.295 34.4148 107.295 34.9788ZM104.32 34.9788C104.32 35.5429 104.764 36.0001 105.312 36.0001C105.86 36.0001 106.304 35.5429 106.304 34.9788C106.304 34.4148 105.86 33.9576 105.312 33.9576C104.764 33.9576 104.32 34.4148 104.32 34.9788ZM101.346 34.9788C101.346 35.5429 101.79 36.0001 102.337 36.0001C102.885 36.0001 103.329 35.5429 103.329 34.9788C103.329 34.4148 102.885 33.9576 102.337 33.9576C101.79 33.9576 101.346 34.4148 101.346 34.9788ZM98.3709 34.9788C98.3709 35.5429 98.8148 36.0001 99.3625 36.0001C99.9101 36.0001 100.354 35.5429 100.354 34.9788C100.354 34.4148 99.9101 33.9576 99.3625 33.9576C98.8148 33.9576 98.3709 34.4148 98.3709 34.9788ZM95.3961 34.9788C95.3961 35.5429 95.84 36.0001 96.3877 36.0001C96.9353 36.0001 97.3793 35.5429 97.3793 34.9788C97.3793 34.4148 96.9353 33.9576 96.3877 33.9576C95.84 33.9576 95.3961 34.4148 95.3961 34.9788ZM92.4213 34.9788C92.4213 35.5429 92.8653 36.0001 93.4129 36.0001C93.9605 36.0001 94.4045 35.5429 94.4045 34.9788C94.4045 34.4148 93.9605 33.9576 93.4129 33.9576C92.8653 33.9576 92.4213 34.4148 92.4213 34.9788ZM89.4466 34.9788C89.4466 35.5429 89.8905 36.0001 90.4381 36.0001C90.9858 36.0001 91.4297 35.5429 91.4297 34.9788C91.4297 34.4148 90.9858 33.9576 90.4381 33.9576C89.8905 33.9576 89.4466 34.4148 89.4466 34.9788ZM86.4718 34.9788C86.4718 35.5429 86.9157 36.0001 87.4634 36.0001C88.011 36.0001 88.455 35.5429 88.455 34.9788C88.455 34.4148 88.011 33.9576 87.4634 33.9576C86.9157 33.9576 86.4718 34.4148 86.4718 34.9788ZM83.497 34.9788C83.497 35.5429 83.9409 36.0001 84.4886 36.0001C85.0362 36.0001 85.4802 35.5429 85.4802 34.9788C85.4802 34.4148 85.0362 33.9576 84.4886 33.9576C83.9409 33.9576 83.497 34.4148 83.497 34.9788ZM80.5222 34.9788C80.5222 35.5429 80.9661 36.0001 81.5138 36.0001C82.0614 36.0001 82.5054 35.5429 82.5054 34.9788C82.5054 34.4148 82.0614 33.9576 81.5138 33.9576C80.9661 33.9576 80.5222 34.4148 80.5222 34.9788ZM77.5474 34.9788C77.5474 35.5429 77.9914 36.0001 78.539 36.0001C79.0866 36.0001 79.5306 35.5429 79.5306 34.9788C79.5306 34.4148 79.0866 33.9576 78.539 33.9576C77.9914 33.9576 77.5474 34.4148 77.5474 34.9788ZM74.5725 34.9788C74.5725 35.5429 75.0165 36.0001 75.5642 36.0001C76.1118 36.0001 76.5558 35.5429 76.5558 34.9788C76.5558 34.4148 76.1118 33.9576 75.5642 33.9576C75.0165 33.9576 74.5725 34.4148 74.5725 34.9788ZM71.5977 34.9788C71.5977 35.5429 72.0417 36.0001 72.5893 36.0001C73.137 36.0001 73.5809 35.5429 73.5809 34.9788C73.5809 34.4148 73.137 33.9576 72.5893 33.9576C72.0417 33.9576 71.5977 34.4148 71.5977 34.9788ZM68.6229 34.9788C68.6229 35.5429 69.0669 36.0001 69.6145 36.0001C70.1622 36.0001 70.6061 35.5429 70.6061 34.9788C70.6061 34.4148 70.1622 33.9576 69.6145 33.9576C69.0669 33.9576 68.6229 34.4148 68.6229 34.9788ZM65.6481 34.9788C65.6481 35.5429 66.0921 36.0001 66.6397 36.0001C67.1874 36.0001 67.6313 35.5429 67.6313 34.9788C67.6313 34.4148 67.1874 33.9576 66.6397 33.9576C66.0921 33.9576 65.6481 34.4148 65.6481 34.9788ZM62.6733 34.9788C62.6733 35.5429 63.1173 36.0001 63.6649 36.0001C64.2126 36.0001 64.6565 35.5429 64.6565 34.9788C64.6565 34.4148 64.2126 33.9576 63.6649 33.9576C63.1173 33.9576 62.6733 34.4148 62.6733 34.9788ZM59.6986 34.9788C59.6986 35.5429 60.1425 36.0001 60.6902 36.0001C61.2378 36.0001 61.6818 35.5429 61.6818 34.9788C61.6818 34.4148 61.2378 33.9576 60.6902 33.9576C60.1425 33.9576 59.6986 34.4148 59.6986 34.9788ZM56.7238 34.9788C56.7238 35.5429 57.1677 36.0001 57.7154 36.0001C58.263 36.0001 58.707 35.5429 58.707 34.9788C58.707 34.4148 58.263 33.9576 57.7154 33.9576C57.1677 33.9576 56.7238 34.4148 56.7238 34.9788ZM53.749 34.9788C53.749 35.5429 54.1929 36.0001 54.7406 36.0001C55.2882 36.0001 55.7322 35.5429 55.7322 34.9788C55.7322 34.4148 55.2882 33.9576 54.7406 33.9576C54.1929 33.9576 53.749 34.4148 53.749 34.9788ZM50.7742 34.9788C50.7742 35.5429 51.2181 36.0001 51.7658 36.0001C52.3134 36.0001 52.7574 35.5429 52.7574 34.9788C52.7574 34.4148 52.3134 33.9576 51.7658 33.9576C51.2181 33.9576 50.7742 34.4148 50.7742 34.9788ZM47.7994 34.9788C47.7994 35.5429 48.2433 36.0001 48.791 36.0001C49.3386 36.0001 49.7826 35.5429 49.7826 34.9788C49.7826 34.4148 49.3386 33.9576 48.791 33.9576C48.2433 33.9576 47.7994 34.4148 47.7994 34.9788ZM44.8246 34.9788C44.8246 35.5429 45.2686 36.0001 45.8162 36.0001C46.3638 36.0001 46.8078 35.5429 46.8078 34.9788C46.8078 34.4148 46.3638 33.9576 45.8162 33.9576C45.2686 33.9576 44.8246 34.4148 44.8246 34.9788ZM41.8498 34.9788C41.8498 35.5429 42.2938 36.0001 42.8414 36.0001C43.3891 36.0001 43.833 35.5429 43.833 34.9788C43.833 34.4148 43.3891 33.9576 42.8414 33.9576C42.2938 33.9576 41.8498 34.4148 41.8498 34.9788ZM38.875 34.9788C38.875 35.5429 39.319 36.0001 39.8666 36.0001C40.4143 36.0001 40.8582 35.5429 40.8582 34.9788C40.8582 34.4148 40.4143 33.9576 39.8666 33.9576C39.319 33.9576 38.875 34.4148 38.875 34.9788ZM35.9002 34.9788C35.9002 35.5429 36.3442 36.0001 36.8918 36.0001C37.4395 36.0001 37.8834 35.5429 37.8834 34.9788C37.8834 34.4148 37.4395 33.9576 36.8918 33.9576C36.3442 33.9576 35.9002 34.4148 35.9002 34.9788ZM32.9255 34.9788C32.9255 35.5429 33.3694 36.0001 33.917 36.0001C34.4647 36.0001 34.9087 35.5429 34.9087 34.9788C34.9087 34.4148 34.4647 33.9576 33.917 33.9576C33.3694 33.9576 32.9255 34.4148 32.9255 34.9788ZM29.9507 34.9788C29.9507 35.5429 30.3946 36.0001 30.9423 36.0001C31.4899 36.0001 31.9339 35.5429 31.9339 34.9788C31.9339 34.4148 31.4899 33.9576 30.9423 33.9576C30.3946 33.9576 29.9507 34.4148 29.9507 34.9788ZM26.9759 34.9788C26.9759 35.5429 27.4198 36.0001 27.9675 36.0001C28.5151 36.0001 28.9591 35.5429 28.9591 34.9788C28.9591 34.4148 28.5151 33.9576 27.9675 33.9576C27.4198 33.9576 26.9759 34.4148 26.9759 34.9788ZM24.9927 30.8938C24.445 30.8938 24.0011 31.351 24.0011 31.915C24.0011 32.4791 24.445 32.9363 24.9927 32.9363C25.5403 32.9363 25.9843 32.4791 25.9843 31.915C25.9843 31.351 25.5403 30.8938 24.9927 30.8938ZM28.9591 28.8512C28.9591 28.2872 28.5151 27.8299 27.9675 27.8299C27.4198 27.8299 26.9759 28.2872 26.9759 28.8512C26.9759 29.4152 27.4198 29.8725 27.9675 29.8725C28.5151 29.8725 28.9591 29.4152 28.9591 28.8512ZM31.9339 28.8512C31.9339 28.2872 31.4899 27.8299 30.9423 27.8299C30.3946 27.8299 29.9507 28.2872 29.9507 28.8512C29.9507 29.4152 30.3946 29.8725 30.9423 29.8725C31.4899 29.8725 31.9339 29.4152 31.9339 28.8512ZM34.9087 28.8512C34.9087 28.2872 34.4647 27.8299 33.917 27.8299C33.3694 27.8299 32.9255 28.2872 32.9255 28.8512C32.9255 29.4152 33.3694 29.8725 33.917 29.8725C34.4647 29.8725 34.9087 29.4152 34.9087 28.8512ZM37.8834 28.8512C37.8834 28.2872 37.4395 27.8299 36.8918 27.8299C36.3442 27.8299 35.9002 28.2872 35.9002 28.8512C35.9002 29.4152 36.3442 29.8725 36.8918 29.8725C37.4395 29.8725 37.8834 29.4152 37.8834 28.8512ZM40.8582 28.8512C40.8582 28.2872 40.4143 27.8299 39.8666 27.8299C39.319 27.8299 38.875 28.2872 38.875 28.8512C38.875 29.4152 39.319 29.8725 39.8666 29.8725C40.4143 29.8725 40.8582 29.4152 40.8582 28.8512ZM43.833 28.8512C43.833 28.2872 43.3891 27.8299 42.8414 27.8299C42.2938 27.8299 41.8498 28.2872 41.8498 28.8512C41.8498 29.4152 42.2938 29.8725 42.8414 29.8725C43.3891 29.8725 43.833 29.4152 43.833 28.8512ZM46.8078 28.8512C46.8078 28.2872 46.3638 27.8299 45.8162 27.8299C45.2686 27.8299 44.8246 28.2872 44.8246 28.8512C44.8246 29.4152 45.2686 29.8725 45.8162 29.8725C46.3638 29.8725 46.8078 29.4152 46.8078 28.8512ZM49.7826 28.8512C49.7826 28.2872 49.3386 27.8299 48.791 27.8299C48.2433 27.8299 47.7994 28.2872 47.7994 28.8512C47.7994 29.4152 48.2433 29.8725 48.791 29.8725C49.3386 29.8725 49.7826 29.4152 49.7826 28.8512ZM52.7574 28.8512C52.7574 28.2872 52.3134 27.8299 51.7658 27.8299C51.2181 27.8299 50.7742 28.2872 50.7742 28.8512C50.7742 29.4152 51.2181 29.8725 51.7658 29.8725C52.3134 29.8725 52.7574 29.4152 52.7574 28.8512ZM55.7322 28.8512C55.7322 28.2872 55.2882 27.8299 54.7406 27.8299C54.1929 27.8299 53.749 28.2872 53.749 28.8512C53.749 29.4152 54.1929 29.8725 54.7406 29.8725C55.2882 29.8725 55.7322 29.4152 55.7322 28.8512ZM58.707 28.8512C58.707 28.2872 58.263 27.8299 57.7154 27.8299C57.1677 27.8299 56.7238 28.2872 56.7238 28.8512C56.7238 29.4152 57.1677 29.8725 57.7154 29.8725C58.263 29.8725 58.707 29.4152 58.707 28.8512ZM61.6818 28.8512C61.6818 28.2872 61.2378 27.8299 60.6902 27.8299C60.1425 27.8299 59.6986 28.2872 59.6986 28.8512C59.6986 29.4152 60.1425 29.8725 60.6902 29.8725C61.2378 29.8725 61.6818 29.4152 61.6818 28.8512ZM64.6565 28.8512C64.6565 28.2872 64.2126 27.8299 63.6649 27.8299C63.1173 27.8299 62.6733 28.2872 62.6733 28.8512C62.6733 29.4152 63.1173 29.8725 63.6649 29.8725C64.2126 29.8725 64.6565 29.4152 64.6565 28.8512ZM67.6313 28.8512C67.6313 28.2872 67.1874 27.8299 66.6397 27.8299C66.0921 27.8299 65.6481 28.2872 65.6481 28.8512C65.6481 29.4152 66.0921 29.8725 66.6397 29.8725C67.1874 29.8725 67.6313 29.4152 67.6313 28.8512ZM70.6061 28.8512C70.6061 28.2872 70.1622 27.8299 69.6145 27.8299C69.0669 27.8299 68.6229 28.2872 68.6229 28.8512C68.6229 29.4152 69.0669 29.8725 69.6145 29.8725C70.1622 29.8725 70.6061 29.4152 70.6061 28.8512ZM73.5809 28.8512C73.5809 28.2872 73.137 27.8299 72.5893 27.8299C72.0417 27.8299 71.5977 28.2872 71.5977 28.8512C71.5977 29.4152 72.0417 29.8725 72.5893 29.8725C73.137 29.8725 73.5809 29.4152 73.5809 28.8512ZM76.5558 28.8512C76.5558 28.2872 76.1118 27.8299 75.5642 27.8299C75.0165 27.8299 74.5725 28.2872 74.5725 28.8512C74.5725 29.4152 75.0165 29.8725 75.5642 29.8725C76.1118 29.8725 76.5558 29.4152 76.5558 28.8512ZM79.5306 28.8512C79.5306 28.2872 79.0866 27.8299 78.539 27.8299C77.9914 27.8299 77.5474 28.2872 77.5474 28.8512C77.5474 29.4152 77.9914 29.8725 78.539 29.8725C79.0866 29.8725 79.5306 29.4152 79.5306 28.8512ZM82.5054 28.8512C82.5054 28.2872 82.0614 27.8299 81.5138 27.8299C80.9661 27.8299 80.5222 28.2872 80.5222 28.8512C80.5222 29.4152 80.9661 29.8725 81.5138 29.8725C82.0614 29.8725 82.5054 29.4152 82.5054 28.8512ZM85.4802 28.8512C85.4802 28.2872 85.0362 27.8299 84.4886 27.8299C83.9409 27.8299 83.497 28.2872 83.497 28.8512C83.497 29.4152 83.9409 29.8725 84.4886 29.8725C85.0362 29.8725 85.4802 29.4152 85.4802 28.8512ZM88.455 28.8512C88.455 28.2872 88.011 27.8299 87.4634 27.8299C86.9157 27.8299 86.4718 28.2872 86.4718 28.8512C86.4718 29.4152 86.9157 29.8725 87.4634 29.8725C88.011 29.8725 88.455 29.4152 88.455 28.8512ZM91.4297 28.8512C91.4297 28.2872 90.9858 27.8299 90.4381 27.8299C89.8905 27.8299 89.4466 28.2872 89.4466 28.8512C89.4466 29.4152 89.8905 29.8725 90.4381 29.8725C90.9858 29.8725 91.4297 29.4152 91.4297 28.8512ZM94.4045 28.8512C94.4045 28.2872 93.9605 27.8299 93.4129 27.8299C92.8653 27.8299 92.4213 28.2872 92.4213 28.8512C92.4213 29.4152 92.8653 29.8725 93.4129 29.8725C93.9605 29.8725 94.4045 29.4152 94.4045 28.8512ZM97.3793 28.8512C97.3793 28.2872 96.9353 27.8299 96.3877 27.8299C95.84 27.8299 95.3961 28.2872 95.3961 28.8512C95.3961 29.4152 95.84 29.8725 96.3877 29.8725C96.9353 29.8725 97.3793 29.4152 97.3793 28.8512ZM100.354 28.8512C100.354 28.2872 99.9101 27.8299 99.3625 27.8299C98.8148 27.8299 98.3709 28.2872 98.3709 28.8512C98.3709 29.4152 98.8148 29.8725 99.3625 29.8725C99.9101 29.8725 100.354 29.4152 100.354 28.8512ZM103.329 28.8512C103.329 28.2872 102.885 27.8299 102.337 27.8299C101.79 27.8299 101.346 28.2872 101.346 28.8512C101.346 29.4152 101.79 29.8725 102.337 29.8725C102.885 29.8725 103.329 29.4152 103.329 28.8512ZM106.304 28.8512C106.304 28.2872 105.86 27.8299 105.312 27.8299C104.764 27.8299 104.32 28.2872 104.32 28.8512C104.32 29.4152 104.764 29.8725 105.312 29.8725C105.86 29.8725 106.304 29.4152 106.304 28.8512ZM109.278 28.8512C109.278 28.2872 108.834 27.8299 108.287 27.8299C107.739 27.8299 107.295 28.2872 107.295 28.8512C107.295 29.4152 107.739 29.8725 108.287 29.8725C108.834 29.8725 109.278 29.4152 109.278 28.8512ZM112.253 28.8512C112.253 28.2872 111.809 27.8299 111.262 27.8299C110.714 27.8299 110.27 28.2872 110.27 28.8512C110.27 29.4152 110.714 29.8725 111.262 29.8725C111.809 29.8725 112.253 29.4152 112.253 28.8512ZM115.228 28.8512C115.228 28.2872 114.784 27.8299 114.236 27.8299C113.689 27.8299 113.245 28.2872 113.245 28.8512C113.245 29.4152 113.689 29.8725 114.236 29.8725C114.784 29.8725 115.228 29.4152 115.228 28.8512ZM118.203 28.8512C118.203 28.2872 117.759 27.8299 117.211 27.8299C116.664 27.8299 116.22 28.2872 116.22 28.8512C116.22 29.4152 116.664 29.8725 117.211 29.8725C117.759 29.8725 118.203 29.4152 118.203 28.8512ZM121.178 28.8512C121.178 28.2872 120.734 27.8299 120.186 27.8299C119.638 27.8299 119.194 28.2872 119.194 28.8512C119.194 29.4152 119.638 29.8725 120.186 29.8725C120.734 29.8725 121.178 29.4152 121.178 28.8512ZM124.152 28.8512C124.152 28.2872 123.708 27.8299 123.161 27.8299C122.613 27.8299 122.169 28.2872 122.169 28.8512C122.169 29.4152 122.613 29.8725 123.161 29.8725C123.708 29.8725 124.152 29.4152 124.152 28.8512ZM127.127 28.8512C127.127 28.2872 126.683 27.8299 126.136 27.8299C125.588 27.8299 125.144 28.2872 125.144 28.8512C125.144 29.4152 125.588 29.8725 126.136 29.8725C126.683 29.8725 127.127 29.4152 127.127 28.8512ZM130.102 28.8512C130.102 28.2872 129.658 27.8299 129.11 27.8299C128.563 27.8299 128.119 28.2872 128.119 28.8512C128.119 29.4152 128.563 29.8725 129.11 29.8725C129.658 29.8725 130.102 29.4152 130.102 28.8512ZM133.077 28.8512C133.077 28.2872 132.633 27.8299 132.085 27.8299C131.538 27.8299 131.094 28.2872 131.094 28.8512C131.094 29.4152 131.538 29.8725 132.085 29.8725C132.633 29.8725 133.077 29.4152 133.077 28.8512ZM27.9675 32.9363C28.5151 32.9363 28.9591 32.4791 28.9591 31.915C28.9591 31.351 28.5151 30.8938 27.9675 30.8938C27.4198 30.8938 26.9759 31.351 26.9759 31.915C26.9759 32.4791 27.4198 32.9363 27.9675 32.9363ZM30.9423 32.9363C31.4899 32.9363 31.9339 32.4791 31.9339 31.915C31.9339 31.351 31.4899 30.8938 30.9423 30.8938C30.3946 30.8938 29.9507 31.351 29.9507 31.915C29.9507 32.4791 30.3946 32.9363 30.9423 32.9363ZM33.917 32.9363C34.4647 32.9363 34.9087 32.4791 34.9087 31.915C34.9087 31.351 34.4647 30.8938 33.917 30.8938C33.3694 30.8938 32.9255 31.351 32.9255 31.915C32.9255 32.4791 33.3694 32.9363 33.917 32.9363ZM36.8918 32.9363C37.4395 32.9363 37.8834 32.4791 37.8834 31.915C37.8834 31.351 37.4395 30.8938 36.8918 30.8938C36.3442 30.8938 35.9002 31.351 35.9002 31.915C35.9002 32.4791 36.3442 32.9363 36.8918 32.9363ZM39.8666 32.9363C40.4143 32.9363 40.8582 32.4791 40.8582 31.915C40.8582 31.351 40.4143 30.8938 39.8666 30.8938C39.319 30.8938 38.875 31.351 38.875 31.915C38.875 32.4791 39.319 32.9363 39.8666 32.9363ZM42.8414 32.9363C43.3891 32.9363 43.833 32.4791 43.833 31.915C43.833 31.351 43.3891 30.8938 42.8414 30.8938C42.2938 30.8938 41.8498 31.351 41.8498 31.915C41.8498 32.4791 42.2938 32.9363 42.8414 32.9363ZM45.8162 32.9363C46.3638 32.9363 46.8078 32.4791 46.8078 31.915C46.8078 31.351 46.3638 30.8938 45.8162 30.8938C45.2686 30.8938 44.8246 31.351 44.8246 31.915C44.8246 32.4791 45.2686 32.9363 45.8162 32.9363ZM48.791 32.9363C49.3386 32.9363 49.7826 32.4791 49.7826 31.915C49.7826 31.351 49.3386 30.8938 48.791 30.8938C48.2433 30.8938 47.7994 31.351 47.7994 31.915C47.7994 32.4791 48.2433 32.9363 48.791 32.9363ZM51.7658 32.9363C52.3134 32.9363 52.7574 32.4791 52.7574 31.915C52.7574 31.351 52.3134 30.8938 51.7658 30.8938C51.2181 30.8938 50.7742 31.351 50.7742 31.915C50.7742 32.4791 51.2181 32.9363 51.7658 32.9363ZM54.7406 32.9363C55.2882 32.9363 55.7322 32.4791 55.7322 31.915C55.7322 31.351 55.2882 30.8938 54.7406 30.8938C54.1929 30.8938 53.749 31.351 53.749 31.915C53.749 32.4791 54.1929 32.9363 54.7406 32.9363ZM57.7154 32.9363C58.263 32.9363 58.707 32.4791 58.707 31.915C58.707 31.351 58.263 30.8938 57.7154 30.8938C57.1677 30.8938 56.7238 31.351 56.7238 31.915C56.7238 32.4791 57.1677 32.9363 57.7154 32.9363ZM60.6902 32.9363C61.2378 32.9363 61.6818 32.4791 61.6818 31.915C61.6818 31.351 61.2378 30.8938 60.6902 30.8938C60.1425 30.8938 59.6986 31.351 59.6986 31.915C59.6986 32.4791 60.1425 32.9363 60.6902 32.9363ZM63.6649 32.9363C64.2126 32.9363 64.6565 32.4791 64.6565 31.915C64.6565 31.351 64.2126 30.8938 63.6649 30.8938C63.1173 30.8938 62.6733 31.351 62.6733 31.915C62.6733 32.4791 63.1173 32.9363 63.6649 32.9363ZM66.6397 32.9363C67.1874 32.9363 67.6313 32.4791 67.6313 31.915C67.6313 31.351 67.1874 30.8938 66.6397 30.8938C66.0921 30.8938 65.6481 31.351 65.6481 31.915C65.6481 32.4791 66.0921 32.9363 66.6397 32.9363ZM69.6145 32.9363C70.1622 32.9363 70.6061 32.4791 70.6061 31.915C70.6061 31.351 70.1622 30.8938 69.6145 30.8938C69.0669 30.8938 68.6229 31.351 68.6229 31.915C68.6229 32.4791 69.0669 32.9363 69.6145 32.9363ZM72.5893 32.9363C73.137 32.9363 73.5809 32.4791 73.5809 31.915C73.5809 31.351 73.137 30.8938 72.5893 30.8938C72.0417 30.8938 71.5977 31.351 71.5977 31.915C71.5977 32.4791 72.0417 32.9363 72.5893 32.9363ZM75.5642 32.9363C76.1118 32.9363 76.5558 32.4791 76.5558 31.915C76.5558 31.351 76.1118 30.8938 75.5642 30.8938C75.0165 30.8938 74.5725 31.351 74.5725 31.915C74.5725 32.4791 75.0165 32.9363 75.5642 32.9363ZM78.539 32.9363C79.0866 32.9363 79.5306 32.4791 79.5306 31.915C79.5306 31.351 79.0866 30.8938 78.539 30.8938C77.9914 30.8938 77.5474 31.351 77.5474 31.915C77.5474 32.4791 77.9914 32.9363 78.539 32.9363ZM81.5138 32.9363C82.0614 32.9363 82.5054 32.4791 82.5054 31.915C82.5054 31.351 82.0614 30.8938 81.5138 30.8938C80.9661 30.8938 80.5222 31.351 80.5222 31.915C80.5222 32.4791 80.9661 32.9363 81.5138 32.9363ZM84.4886 32.9363C85.0362 32.9363 85.4802 32.4791 85.4802 31.915C85.4802 31.351 85.0362 30.8938 84.4886 30.8938C83.9409 30.8938 83.497 31.351 83.497 31.915C83.497 32.4791 83.9409 32.9363 84.4886 32.9363ZM87.4634 32.9363C88.011 32.9363 88.455 32.4791 88.455 31.915C88.455 31.351 88.011 30.8938 87.4634 30.8938C86.9157 30.8938 86.4718 31.351 86.4718 31.915C86.4718 32.4791 86.9157 32.9363 87.4634 32.9363ZM90.4381 32.9363C90.9858 32.9363 91.4297 32.4791 91.4297 31.915C91.4297 31.351 90.9858 30.8938 90.4381 30.8938C89.8905 30.8938 89.4466 31.351 89.4466 31.915C89.4466 32.4791 89.8905 32.9363 90.4381 32.9363ZM93.4129 32.9363C93.9605 32.9363 94.4045 32.4791 94.4045 31.915C94.4045 31.351 93.9605 30.8938 93.4129 30.8938C92.8653 30.8938 92.4213 31.351 92.4213 31.915C92.4213 32.4791 92.8653 32.9363 93.4129 32.9363ZM96.3877 32.9363C96.9353 32.9363 97.3793 32.4791 97.3793 31.915C97.3793 31.351 96.9353 30.8938 96.3877 30.8938C95.84 30.8938 95.3961 31.351 95.3961 31.915C95.3961 32.4791 95.84 32.9363 96.3877 32.9363ZM99.3625 32.9363C99.9101 32.9363 100.354 32.4791 100.354 31.915C100.354 31.351 99.9101 30.8938 99.3625 30.8938C98.8148 30.8938 98.3709 31.351 98.3709 31.915C98.3709 32.4791 98.8148 32.9363 99.3625 32.9363ZM102.337 32.9363C102.885 32.9363 103.329 32.4791 103.329 31.915C103.329 31.351 102.885 30.8938 102.337 30.8938C101.79 30.8938 101.346 31.351 101.346 31.915C101.346 32.4791 101.79 32.9363 102.337 32.9363ZM105.312 32.9363C105.86 32.9363 106.304 32.4791 106.304 31.915C106.304 31.351 105.86 30.8938 105.312 30.8938C104.764 30.8938 104.32 31.351 104.32 31.915C104.32 32.4791 104.764 32.9363 105.312 32.9363ZM108.287 32.9363C108.834 32.9363 109.278 32.4791 109.278 31.915C109.278 31.351 108.834 30.8938 108.287 30.8938C107.739 30.8938 107.295 31.351 107.295 31.915C107.295 32.4791 107.739 32.9363 108.287 32.9363ZM111.262 32.9363C111.809 32.9363 112.253 32.4791 112.253 31.915C112.253 31.351 111.809 30.8938 111.262 30.8938C110.714 30.8938 110.27 31.351 110.27 31.915C110.27 32.4791 110.714 32.9363 111.262 32.9363ZM114.236 32.9363C114.784 32.9363 115.228 32.4791 115.228 31.915C115.228 31.351 114.784 30.8938 114.236 30.8938C113.689 30.8938 113.245 31.351 113.245 31.915C113.245 32.4791 113.689 32.9363 114.236 32.9363ZM117.211 32.9363C117.759 32.9363 118.203 32.4791 118.203 31.915C118.203 31.351 117.759 30.8938 117.211 30.8938C116.664 30.8938 116.22 31.351 116.22 31.915C116.22 32.4791 116.664 32.9363 117.211 32.9363ZM120.186 32.9363C120.734 32.9363 121.178 32.4791 121.178 31.915C121.178 31.351 120.734 30.8938 120.186 30.8938C119.638 30.8938 119.194 31.351 119.194 31.915C119.194 32.4791 119.638 32.9363 120.186 32.9363ZM123.161 32.9363C123.708 32.9363 124.152 32.4791 124.152 31.915C124.152 31.351 123.708 30.8938 123.161 30.8938C122.613 30.8938 122.169 31.351 122.169 31.915C122.169 32.4791 122.613 32.9363 123.161 32.9363ZM126.136 32.9363C126.683 32.9363 127.127 32.4791 127.127 31.915C127.127 31.351 126.683 30.8938 126.136 30.8938C125.588 30.8938 125.144 31.351 125.144 31.915C125.144 32.4791 125.588 32.9363 126.136 32.9363ZM129.11 32.9363C129.658 32.9363 130.102 32.4791 130.102 31.915C130.102 31.351 129.658 30.8938 129.11 30.8938C128.563 30.8938 128.119 31.351 128.119 31.915C128.119 32.4791 128.563 32.9363 129.11 32.9363ZM132.085 32.9363C132.633 32.9363 133.077 32.4791 133.077 31.915C133.077 31.351 132.633 30.8938 132.085 30.8938C131.538 30.8938 131.094 31.351 131.094 31.915C131.094 32.4791 131.538 32.9363 132.085 32.9363ZM135.06 32.9363C135.608 32.9363 136.052 32.4791 136.052 31.915C136.052 31.351 135.608 30.8938 135.06 30.8938C134.512 30.8938 134.068 31.351 134.068 31.915C134.068 32.4791 134.512 32.9363 135.06 32.9363ZM135.06 29.8725C135.608 29.8725 136.052 29.4152 136.052 28.8512C136.052 28.2872 135.608 27.8299 135.06 27.8299C134.512 27.8299 134.068 28.2872 134.068 28.8512C134.068 29.4152 134.512 29.8725 135.06 29.8725ZM138.035 32.9363C138.582 32.9363 139.026 32.4791 139.026 31.915C139.026 31.351 138.582 30.8938 138.035 30.8938C137.487 30.8938 137.043 31.351 137.043 31.915C137.043 32.4791 137.487 32.9363 138.035 32.9363ZM138.035 29.8725C138.582 29.8725 139.026 29.4152 139.026 28.8512C139.026 28.2872 138.582 27.8299 138.035 27.8299C137.487 27.8299 137.043 28.2872 137.043 28.8512C137.043 29.4152 137.487 29.8725 138.035 29.8725ZM135.06 26.8087C135.608 26.8087 136.052 26.3514 136.052 25.7874C136.052 25.2234 135.608 24.7661 135.06 24.7661C134.512 24.7661 134.068 25.2234 134.068 25.7874C134.068 26.3514 134.512 26.8087 135.06 26.8087ZM135.06 23.7449C135.608 23.7449 136.052 23.2876 136.052 22.7236C136.052 22.1595 135.608 21.7023 135.06 21.7023C134.512 21.7023 134.068 22.1595 134.068 22.7236C134.068 23.2876 134.512 23.7449 135.06 23.7449ZM135.06 20.681C135.608 20.681 136.052 20.2238 136.052 19.6598C136.052 19.0957 135.608 18.6385 135.06 18.6385C134.512 18.6385 134.068 19.0957 134.068 19.6598C134.068 20.2238 134.512 20.681 135.06 20.681ZM138.035 26.8087C138.582 26.8087 139.026 26.3514 139.026 25.7874C139.026 25.2234 138.582 24.7661 138.035 24.7661C137.487 24.7661 137.043 25.2234 137.043 25.7874C137.043 26.3514 137.487 26.8087 138.035 26.8087ZM138.035 23.7449C138.582 23.7449 139.026 23.2876 139.026 22.7236C139.026 22.1595 138.582 21.7023 138.035 21.7023C137.487 21.7023 137.043 22.1595 137.043 22.7236C137.043 23.2876 137.487 23.7449 138.035 23.7449ZM138.035 20.681C138.582 20.681 139.026 20.2238 139.026 19.6598C139.026 19.0957 138.582 18.6385 138.035 18.6385C137.487 18.6385 137.043 19.0957 137.043 19.6598C137.043 20.2238 137.487 20.681 138.035 20.681ZM135.06 17.6172C135.608 17.6172 136.052 17.16 136.052 16.596C136.052 16.0319 135.608 15.5747 135.06 15.5747C134.512 15.5747 134.068 16.0319 134.068 16.596C134.068 17.16 134.512 17.6172 135.06 17.6172ZM135.06 14.5534C135.608 14.5534 136.052 14.0962 136.052 13.5321C136.052 12.9681 135.608 12.5109 135.06 12.5109C134.512 12.5109 134.068 12.9681 134.068 13.5321C134.068 14.0962 134.512 14.5534 135.06 14.5534ZM135.06 11.4896C135.608 11.4896 136.052 11.0324 136.052 10.4683C136.052 9.9043 135.608 9.44706 135.06 9.44706C134.512 9.44706 134.068 9.9043 134.068 10.4683C134.068 11.0324 134.512 11.4896 135.06 11.4896ZM138.035 17.6172C138.582 17.6172 139.026 17.16 139.026 16.596C139.026 16.0319 138.582 15.5747 138.035 15.5747C137.487 15.5747 137.043 16.0319 137.043 16.596C137.043 17.16 137.487 17.6172 138.035 17.6172ZM138.035 14.5534C138.582 14.5534 139.026 14.0962 139.026 13.5321C139.026 12.9681 138.582 12.5109 138.035 12.5109C137.487 12.5109 137.043 12.9681 137.043 13.5321C137.043 14.0962 137.487 14.5534 138.035 14.5534ZM138.035 11.4896C138.582 11.4896 139.026 11.0324 139.026 10.4683C139.026 9.9043 138.582 9.44706 138.035 9.44706C137.487 9.44706 137.043 9.9043 137.043 10.4683C137.043 11.0324 137.487 11.4896 138.035 11.4896ZM135.06 8.42579C135.608 8.42579 136.052 7.96855 136.052 7.40451C136.052 6.84048 135.608 6.38324 135.06 6.38324C134.512 6.38324 134.068 6.84048 134.068 7.40451C134.068 7.96855 134.512 8.42579 135.06 8.42579ZM135.06 5.36197C135.608 5.36197 136.052 4.90473 136.052 4.3407C136.052 3.77667 135.608 3.31943 135.06 3.31943C134.512 3.31943 134.068 3.77667 134.068 4.3407C134.068 4.90473 134.512 5.36197 135.06 5.36197ZM135.06 2.29816C135.608 2.29816 136.052 1.84092 136.052 1.27689C136.052 0.712854 135.608 0.255615 135.06 0.255615C134.512 0.255615 134.068 0.712854 134.068 1.27689C134.068 1.84092 134.512 2.29816 135.06 2.29816ZM138.035 8.42579C138.582 8.42579 139.026 7.96855 139.026 7.40451C139.026 6.84048 138.582 6.38324 138.035 6.38324C137.487 6.38324 137.043 6.84048 137.043 7.40451C137.043 7.96855 137.487 8.42579 138.035 8.42579ZM138.035 5.36197C138.582 5.36197 139.026 4.90473 139.026 4.3407C139.026 3.77667 138.582 3.31943 138.035 3.31943C137.487 3.31943 137.043 3.77667 137.043 4.3407C137.043 4.90473 137.487 5.36197 138.035 5.36197ZM138.035 2.29816C138.582 2.29816 139.026 1.84092 139.026 1.27689C139.026 0.712854 138.582 0.255615 138.035 0.255615C137.487 0.255615 137.043 0.712854 137.043 1.27689C137.043 1.84092 137.487 2.29816 138.035 2.29816Z" fill="#4A399D"/>
<path d="M2.21268 34.9788C2.21268 35.5429 1.76874 36.0001 1.22109 36.0001C0.673449 36.0001 0.229492 35.5429 0.229492 34.9788C0.229492 34.4148 0.673449 33.9576 1.22109 33.9576C1.76874 33.9576 2.21268 34.4148 2.21268 34.9788Z" fill="#4A399D"/>
<path d="M2.21268 31.915C2.21268 32.4791 1.76874 32.9363 1.22109 32.9363C0.673449 32.9363 0.229492 32.4791 0.229492 31.915C0.229492 31.351 0.673449 30.8938 1.22109 30.8938C1.76874 30.8938 2.21268 31.351 2.21268 31.915Z" fill="#4A399D"/>
<path d="M2.21268 28.8512C2.21268 29.4152 1.76874 29.8725 1.22109 29.8725C0.673449 29.8725 0.229492 29.4152 0.229492 28.8512C0.229492 28.2872 0.673449 27.8299 1.22109 27.8299C1.76874 27.8299 2.21268 28.2872 2.21268 28.8512Z" fill="#4A399D"/>
<path d="M5.18748 34.9788C5.18748 35.5429 4.74352 36.0001 4.19588 36.0001C3.64823 36.0001 3.20428 35.5429 3.20428 34.9788C3.20428 34.4148 3.64823 33.9576 4.19588 33.9576C4.74352 33.9576 5.18748 34.4148 5.18748 34.9788Z" fill="#4A399D"/>
<path d="M5.18748 31.915C5.18748 32.4791 4.74352 32.9363 4.19588 32.9363C3.64823 32.9363 3.20428 32.4791 3.20428 31.915C3.20428 31.351 3.64823 30.8938 4.19588 30.8938C4.74352 30.8938 5.18748 31.351 5.18748 31.915Z" fill="#4A399D"/>
<path d="M5.18748 28.8512C5.18748 29.4152 4.74352 29.8725 4.19588 29.8725C3.64823 29.8725 3.20428 29.4152 3.20428 28.8512C3.20428 28.2872 3.64823 27.8299 4.19588 27.8299C4.74352 27.8299 5.18748 28.2872 5.18748 28.8512Z" fill="#4A399D"/>
<path d="M8.16226 34.9788C8.16226 35.5429 7.71831 36.0001 7.17067 36.0001C6.62303 36.0001 6.17907 35.5429 6.17907 34.9788C6.17907 34.4148 6.62303 33.9576 7.17067 33.9576C7.71831 33.9576 8.16226 34.4148 8.16226 34.9788Z" fill="#4A399D"/>
<path d="M8.16226 31.915C8.16226 32.4791 7.71831 32.9363 7.17067 32.9363C6.62303 32.9363 6.17907 32.4791 6.17907 31.915C6.17907 31.351 6.62303 30.8938 7.17067 30.8938C7.71831 30.8938 8.16226 31.351 8.16226 31.915Z" fill="#4A399D"/>
<path d="M8.16226 28.8512C8.16226 29.4152 7.71831 29.8725 7.17067 29.8725C6.62303 29.8725 6.17907 29.4152 6.17907 28.8512C6.17907 28.2872 6.62303 27.8299 7.17067 27.8299C7.71831 27.8299 8.16226 28.2872 8.16226 28.8512Z" fill="#4A399D"/>
<path d="M11.1371 34.9788C11.1371 35.5429 10.6931 36.0001 10.1455 36.0001C9.59782 36.0001 9.15386 35.5429 9.15386 34.9788C9.15386 34.4148 9.59782 33.9576 10.1455 33.9576C10.6931 33.9576 11.1371 34.4148 11.1371 34.9788Z" fill="#4A399D"/>
<path d="M11.1371 31.915C11.1371 32.4791 10.6931 32.9363 10.1455 32.9363C9.59782 32.9363 9.15386 32.4791 9.15386 31.915C9.15386 31.351 9.59782 30.8938 10.1455 30.8938C10.6931 30.8938 11.1371 31.351 11.1371 31.915Z" fill="#4A399D"/>
<path d="M11.1371 28.8512C11.1371 29.4152 10.6931 29.8725 10.1455 29.8725C9.59782 29.8725 9.15386 29.4152 9.15386 28.8512C9.15386 28.2872 9.59782 27.8299 10.1455 27.8299C10.6931 27.8299 11.1371 28.2872 11.1371 28.8512Z" fill="#4A399D"/>
<path d="M14.1118 34.9788C14.1118 35.5429 13.6679 36.0001 13.1202 36.0001C12.5726 36.0001 12.1287 35.5429 12.1287 34.9788C12.1287 34.4148 12.5726 33.9576 13.1202 33.9576C13.6679 33.9576 14.1118 34.4148 14.1118 34.9788Z" fill="#4A399D"/>
<path d="M14.1118 31.915C14.1118 32.4791 13.6679 32.9363 13.1202 32.9363C12.5726 32.9363 12.1287 32.4791 12.1287 31.915C12.1287 31.351 12.5726 30.8938 13.1202 30.8938C13.6679 30.8938 14.1118 31.351 14.1118 31.915Z" fill="#4A399D"/>
<path d="M14.1118 28.8512C14.1118 29.4152 13.6679 29.8725 13.1202 29.8725C12.5726 29.8725 12.1287 29.4152 12.1287 28.8512C12.1287 28.2872 12.5726 27.8299 13.1202 27.8299C13.6679 27.8299 14.1118 28.2872 14.1118 28.8512Z" fill="#4A399D"/>
<path d="M17.0866 34.9788C17.0866 35.5429 16.6427 36.0001 16.095 36.0001C15.5474 36.0001 15.1034 35.5429 15.1034 34.9788C15.1034 34.4148 15.5474 33.9576 16.095 33.9576C16.6427 33.9576 17.0866 34.4148 17.0866 34.9788Z" fill="#4A399D"/>
<path d="M17.0866 31.915C17.0866 32.4791 16.6427 32.9363 16.095 32.9363C15.5474 32.9363 15.1034 32.4791 15.1034 31.915C15.1034 31.351 15.5474 30.8938 16.095 30.8938C16.6427 30.8938 17.0866 31.351 17.0866 31.915Z" fill="#4A399D"/>
<path d="M17.0866 28.8512C17.0866 29.4152 16.6427 29.8725 16.095 29.8725C15.5474 29.8725 15.1034 29.4152 15.1034 28.8512C15.1034 28.2872 15.5474 27.8299 16.095 27.8299C16.6427 27.8299 17.0866 28.2872 17.0866 28.8512Z" fill="#4A399D"/>
<path d="M20.0614 34.9788C20.0614 35.5429 19.6175 36.0001 19.0698 36.0001C18.5222 36.0001 18.0782 35.5429 18.0782 34.9788C18.0782 34.4148 18.5222 33.9576 19.0698 33.9576C19.6175 33.9576 20.0614 34.4148 20.0614 34.9788Z" fill="#4A399D"/>
<path d="M20.0614 31.915C20.0614 32.4791 19.6175 32.9363 19.0698 32.9363C18.5222 32.9363 18.0782 32.4791 18.0782 31.915C18.0782 31.351 18.5222 30.8938 19.0698 30.8938C19.6175 30.8938 20.0614 31.351 20.0614 31.915Z" fill="#4A399D"/>
<path d="M20.0614 28.8512C20.0614 29.4152 19.6175 29.8725 19.0698 29.8725C18.5222 29.8725 18.0782 29.4152 18.0782 28.8512C18.0782 28.2872 18.5222 27.8299 19.0698 27.8299C19.6175 27.8299 20.0614 28.2872 20.0614 28.8512Z" fill="#4A399D"/>
<path d="M23.0362 34.9788C23.0362 35.5429 22.5923 36.0001 22.0446 36.0001C21.497 36.0001 21.053 35.5429 21.053 34.9788C21.053 34.4148 21.497 33.9576 22.0446 33.9576C22.5923 33.9576 23.0362 34.4148 23.0362 34.9788Z" fill="#4A399D"/>
<path d="M23.0362 31.915C23.0362 32.4791 22.5923 32.9363 22.0446 32.9363C21.497 32.9363 21.053 32.4791 21.053 31.915C21.053 31.351 21.497 30.8938 22.0446 30.8938C22.5923 30.8938 23.0362 31.351 23.0362 31.915Z" fill="#4A399D"/>
<path d="M23.0362 28.8512C23.0362 29.4152 22.5923 29.8725 22.0446 29.8725C21.497 29.8725 21.053 29.4152 21.053 28.8512C21.053 28.2872 21.497 27.8299 22.0446 27.8299C22.5923 27.8299 23.0362 28.2872 23.0362 28.8512Z" fill="#4A399D"/>
</svg>
