<svg width="37" height="34" viewBox="0 0 37 34" fill="none" xmlns="http://www.w3.org/2000/svg">
<path fill-rule="evenodd" clip-rule="evenodd" d="M35.0267 34H1.97344V32.0571H35.0267V34ZM35.0267 27.6857V32.0571H37V27.6857H35.0267ZM33.0533 23.3143V27.6857H35.0267V23.3143H33.0533ZM31.08 18.9429V23.3143H33.0533V18.9429H31.08ZM29.1067 14.5714V18.9429H31.08V14.5714H29.1067ZM27.1334 10.6857V14.5714H29.1067V10.6857H27.1334ZM25.16 6.31429V10.6857H27.1334V6.31429H25.16ZM23.1867 1.94286H13.8135V0H23.1867V1.94286ZM11.8402 6.31429H13.8135V1.94286H11.8402V6.31429ZM9.86682 10.6857H11.8402V6.31429H9.86682V10.6857ZM7.89343 15.0571H9.86682V10.6857H7.89349L7.89343 15.0571ZM5.9201 18.9429H7.89343V15.0571H5.92003L5.9201 18.9429ZM3.94677 23.3143H5.9201V18.9429H3.94677L3.94677 23.3143ZM1.97345 27.6857L1.97344 23.3143H3.94677V27.6857H1.97345ZM2.84462e-05 32.0571L9.245e-05 27.6857H1.97345L1.97344 32.0571H2.84462e-05ZM23.1867 1.94286V6.31429H25.16V1.94286H23.1867ZM17.2667 9.71429H20.2267V22.3429H17.2667V9.71429ZM17.2667 24.2857H20.2267V27.2H17.2667V24.2857Z" fill="#2D2650"/>
</svg>
