<svg width="37" height="34" viewBox="0 0 37 34" fill="none" xmlns="http://www.w3.org/2000/svg">
<path d="M9.25 0H27.75V2.15873H9.25V0ZM2.17647 25.3651H0V8.63492L2.17647 8.63492V25.3651ZM27.75 31.8413V34H9.25V31.8413H27.75ZM34.8235 8.63492H37V25.3651H34.8235V8.63492Z" fill="#2D2650"/>
<path d="M7.07353 6.47619V4.31746H4.35294V6.47619H7.07353Z" fill="#2D2650"/>
<path fill-rule="evenodd" clip-rule="evenodd" d="M4.35294 8.63492L2.17647 8.63492V6.47619H4.35294V8.63492Z" fill="#2D2650"/>
<path fill-rule="evenodd" clip-rule="evenodd" d="M7.07353 4.31746V2.15873L9.25 2.15873V4.31746H7.07353Z" fill="#2D2650"/>
<path fill-rule="evenodd" clip-rule="evenodd" d="M2.17647 27.5238V25.3651H4.35294V27.5238H2.17647Z" fill="#2D2650"/>
<path fill-rule="evenodd" clip-rule="evenodd" d="M7.07353 31.8413V29.6825H9.25V31.8413H7.07353Z" fill="#2D2650"/>
<path d="M7.07353 29.6825V27.5238H4.35294V29.6825H7.07353Z" fill="#2D2650"/>
<path fill-rule="evenodd" clip-rule="evenodd" d="M27.75 31.8413V29.6825H29.9265V31.8413H27.75Z" fill="#2D2650"/>
<path d="M32.6471 29.6825V27.5238H29.9265V29.6825H32.6471Z" fill="#2D2650"/>
<path fill-rule="evenodd" clip-rule="evenodd" d="M32.6471 27.5238V25.3651H34.8235V27.5238H32.6471Z" fill="#2D2650"/>
<path fill-rule="evenodd" clip-rule="evenodd" d="M27.75 4.31746V2.15873L29.9265 2.15873V4.31746H27.75Z" fill="#2D2650"/>
<path d="M32.6471 6.47619V4.31746H29.9265V6.47619H32.6471Z" fill="#2D2650"/>
<path fill-rule="evenodd" clip-rule="evenodd" d="M34.8235 8.63492L32.6471 8.63492V6.47619L34.8235 6.47619V8.63492Z" fill="#2D2650"/>
<path fill-rule="evenodd" clip-rule="evenodd" d="M7.34559 19.9683V16.1905H9.52206V19.9683H7.34559Z" fill="#2D2650"/>
<path fill-rule="evenodd" clip-rule="evenodd" d="M9.52206 22.6667V19.9683H11.6985V22.6667H9.52206Z" fill="#2D2650"/>
<path fill-rule="evenodd" clip-rule="evenodd" d="M11.6985 24.8254V22.6667H13.875V24.8254H11.6985Z" fill="#2D2650"/>
<path d="M16.5956 27.5238V24.8254H13.875V27.5238H16.5956Z" fill="#2D2650"/>
<path d="M18.7721 24.8254V22.6667H16.5956V24.8254H18.7721Z" fill="#2D2650"/>
<path d="M20.9485 22.6667V19.9683H18.7721V22.6667H20.9485Z" fill="#2D2650"/>
<path d="M23.125 19.9683V17.2698H20.9485V19.9683H23.125Z" fill="#2D2650"/>
<path d="M25.3015 17.2698V14.5714H23.125V17.2698H25.3015Z" fill="#2D2650"/>
<path d="M27.4779 14.5714V11.3333H25.3015V14.5714H27.4779Z" fill="#2D2650"/>
<path d="M29.6544 11.3333V8.63492H27.4779V11.3333H29.6544Z" fill="#2D2650"/>
</svg>
