<svg width="136" height="118" viewBox="0 0 136 118" fill="none" xmlns="http://www.w3.org/2000/svg">
<path fill-rule="evenodd" clip-rule="evenodd" d="M0 0H20.4731V58.5124H24.3728V48.7603H29.2473V39.0083H34.1219V29.2562H38.9964V19.5041H48.7455V0H69.2186V118H48.7455V59.4876H44.8459V69.2397H39.9713V78.9917H35.0968V88.7438H30.2222V98.4959H20.4731V118H0V0ZM18.0358 2.43802H2.43728V115.562H18.0358V96.0579H27.7849V86.3058H32.6595V76.5537H37.534V66.8017H42.4086V57.0496H47.2832V47.2975H51.1828V115.562H66.7814V2.43802H51.1828V21.9421H41.4337V31.6942H36.5591V41.4463H31.6846V51.1983H26.81V60.9504H21.9355V70.7025H18.0358V2.43802Z" fill="#EBE965"/>
<path fill-rule="evenodd" clip-rule="evenodd" d="M76.5305 0H136V20.4793H116.502V118H96.0287V20.4793H76.5305V0ZM133.563 2.43802H78.9677V18.0413H98.466V115.562H114.065V18.0413H133.563V2.43802Z" fill="#EBE965"/>
</svg>
