<svg width="136" height="118" viewBox="0 0 136 118" fill="none" xmlns="http://www.w3.org/2000/svg">
<path fill-rule="evenodd" clip-rule="evenodd" d="M94.5663 57.0496H117.964V99.9587H94.5663V57.0496ZM115.527 59.4876H97.0036V97.5207H115.527V59.4876Z" fill="#EBE965"/>
<path fill-rule="evenodd" clip-rule="evenodd" d="M76.5305 0V118H126.251V108.248H136V48.7603H126.251V39.0083H97.0036V20.4793H136V0H76.5305ZM133.563 2.43802H78.9677V115.562H123.814V105.81H133.563V51.1983H123.814V41.4463H94.5663V18.0413H133.563V2.43802Z" fill="#EBE965"/>
<path fill-rule="evenodd" clip-rule="evenodd" d="M38.9964 39.9835H59.4695V9.75207H49.7204V0H9.7491V9.75207H0V108.248H9.7491V118H49.7204V108.248H59.4695V78.0165H38.9964V97.5207H20.4731V20.4793H38.9964V39.9835ZM57.0323 37.5455H41.4337V18.0413H18.0358V99.9587H41.4337V80.4545H57.0323V105.81H47.2832V115.562H12.1864V105.81H2.43728V12.1901H12.1864V2.43802H47.2832V12.1901H57.0323V37.5455Z" fill="#EBE965"/>
</svg>
