<svg width="288" height="273" viewBox="0 0 288 273" fill="none" xmlns="http://www.w3.org/2000/svg">
<g id="PixelIllustrationCloud=LD">
<g id="pixelarticons:cloud" clip-path="url(#clip0_625_6985)">
<path id="Vector" d="M181.581 14.9644H113.581V37.631H90.9147V60.2977H45.5814V82.9643H22.9147V105.631H0.248047V173.631H22.9147V196.298H249.581V173.631H272.248V105.631H249.581V82.9643H226.915V60.2977H204.248V37.631H181.581V14.9644ZM204.248 105.631H249.581V173.631H22.9147V105.631H45.5814V82.9643H90.9147V105.631H113.581V82.9643H90.9147V60.2977H113.581V37.631H181.581V60.2977H204.248V105.631ZM204.248 105.631V128.298H181.581V105.631H204.248Z" fill="#DFDC01"/>
<path id="Vector_2" fill-rule="evenodd" clip-rule="evenodd" d="M87.3468 67.0063H139.606V84.4261H87.3468V67.0063ZM69.9271 101.846H87.3468V84.4261H69.9271V101.846ZM35.0876 119.266H69.9271V101.846H35.0876V119.266ZM17.6678 136.685H35.0876V119.266H17.6678V136.685ZM17.6678 188.945V136.685H0.248047V188.945H17.6678ZM191.865 188.945H17.6678V206.364H191.865V188.945ZM191.865 136.685H209.285V188.945H191.865V136.685ZM157.026 101.846H139.606V84.4261H157.026V101.846ZM157.026 101.846V136.685H191.865V119.266H174.446V101.846H157.026Z" fill="#2D2650"/>
</g>
</g>
<defs>
<clipPath id="clip0_625_6985">
<rect width="272" height="272" fill="white"/>
</clipPath>
</defs>
</svg>
