<svg width="288" height="272" viewBox="0 0 288 272" fill="none" xmlns="http://www.w3.org/2000/svg">
<g id="PixelIllustrationCloud=RH">
<g id="pixelarticons:cloud" clip-path="url(#clip0_625_6976)">
<path id="Vector" d="M181.734 14.2715H113.734V36.9381H91.0671V59.6048H45.7337V82.2715H23.0671V104.938H0.400391V172.938H23.0671V195.605H249.734V172.938H272.4V104.938H249.734V82.2715H227.067V59.6048H204.4V36.9381H181.734V14.2715ZM204.4 104.938H249.734V172.938H23.0671V104.938H45.7337V82.2715H91.0671V104.938H113.734V82.2715H91.0671V59.6048H113.734V36.9381H181.734V59.6048H204.4V104.938ZM204.4 104.938V127.605H181.734V104.938H204.4Z" fill="#DFDC01"/>
<path id="Vector_2" fill-rule="evenodd" clip-rule="evenodd" d="M150.442 14.6118H202.701V32.0316H150.442V14.6118ZM133.022 49.4513H150.442V32.0316H133.022V49.4513ZM98.1823 66.8711H133.022V49.4513H98.1823V66.8711ZM80.7625 84.2908H98.1823V66.8711H80.7625V84.2908ZM80.7625 136.55V84.2908H63.3428V136.55H80.7625ZM254.96 136.55H80.7625V153.97H254.96V136.55ZM254.96 84.2908H272.38V136.55H254.96V84.2908ZM220.121 49.4513H202.701V32.0316H220.121V49.4513ZM220.121 49.4513V84.2908H254.96V66.8711H237.54V49.4513H220.121Z" fill="#2D2650"/>
</g>
</g>
<defs>
<clipPath id="clip0_625_6976">
<rect width="272" height="272" fill="white" transform="translate(0.400391)"/>
</clipPath>
</defs>
</svg>
