<svg width="288" height="273" viewBox="0 0 288 273" fill="none" xmlns="http://www.w3.org/2000/svg">
<g id="PixelIllustrationCloud=RD">
<g id="pixelarticons:cloud" clip-path="url(#clip0_625_6994)">
<path id="Vector" d="M181.734 14.9644H113.734V37.631H91.0671V60.2977H45.7337V82.9643H23.0671V105.631H0.400391V173.631H23.0671V196.298H249.734V173.631H272.4V105.631H249.734V82.9643H227.067V60.2977H204.4V37.631H181.734V14.9644ZM204.4 105.631H249.734V173.631H23.0671V105.631H45.7337V82.9643H91.0671V105.631H113.734V82.9643H91.0671V60.2977H113.734V37.631H181.734V60.2977H204.4V105.631ZM204.4 105.631V128.298H181.734V105.631H204.4Z" fill="#DFDC01"/>
<path id="Vector_2" fill-rule="evenodd" clip-rule="evenodd" d="M150.442 67.0063H202.701V84.4261H150.442V67.0063ZM133.022 101.846H150.442V84.4261H133.022V101.846ZM98.1823 119.266H133.022V101.846H98.1823V119.266ZM80.7625 136.685H98.1823V119.266H80.7625V136.685ZM80.7625 188.945V136.685H63.3428V188.945H80.7625ZM254.96 188.945H80.7625V206.364H254.96V188.945ZM254.96 136.685H272.38V188.945H254.96V136.685ZM220.121 101.846H202.701V84.4261H220.121V101.846ZM220.121 101.846V136.685H254.96V119.266H237.54V101.846H220.121Z" fill="#2D2650"/>
</g>
</g>
<defs>
<clipPath id="clip0_625_6994">
<rect width="272" height="272" fill="white" transform="translate(0.400391 0.692383)"/>
</clipPath>
</defs>
</svg>
