<svg width="288" height="272" viewBox="0 0 288 272" fill="none" xmlns="http://www.w3.org/2000/svg">
<g id="PixelIllustrationCloud=LH">
<g id="pixelarticons:cloud" clip-path="url(#clip0_625_7003)">
<path id="Vector" d="M181.581 14.2715H113.581V36.9381H90.9147V59.6048H45.5814V82.2715H22.9147V104.938H0.248047V172.938H22.9147V195.605H249.581V172.938H272.248V104.938H249.581V82.2715H226.915V59.6048H204.248V36.9381H181.581V14.2715ZM204.248 104.938H249.581V172.938H22.9147V104.938H45.5814V82.2715H90.9147V104.938H113.581V82.2715H90.9147V59.6048H113.581V36.9381H181.581V59.6048H204.248V104.938ZM204.248 104.938V127.605H181.581V104.938H204.248Z" fill="#DFDC01"/>
<path id="Vector_2" fill-rule="evenodd" clip-rule="evenodd" d="M87.3468 14.6118H139.606V32.0316H87.3468V14.6118ZM69.9271 49.4513H87.3468V32.0316H69.9271V49.4513ZM35.0876 66.8711H69.9271V49.4513H35.0876V66.8711ZM17.6678 84.2908H35.0876V66.8711H17.6678V84.2908ZM17.6678 136.55V84.2908H0.248047V136.55H17.6678ZM191.865 136.55H17.6678V153.97H191.865V136.55ZM191.865 84.2908H209.285V136.55H191.865V84.2908ZM157.026 49.4513H139.606V32.0316H157.026V49.4513ZM157.026 49.4513V84.2908H191.865V66.8711H174.446V49.4513H157.026Z" fill="#2D2650"/>
</g>
</g>
<defs>
<clipPath id="clip0_625_7003">
<rect width="272" height="272" fill="white" transform="translate(0.248047)"/>
</clipPath>
</defs>
</svg>
