<svg width="279" height="242" viewBox="0 0 279 242" fill="none" xmlns="http://www.w3.org/2000/svg">
<path fill-rule="evenodd" clip-rule="evenodd" d="M194 117H242V205H194V117ZM237 122H199V200H237V122Z" fill="#EBE965"/>
<path fill-rule="evenodd" clip-rule="evenodd" d="M157 0.00012207V242H259V222H279V100H259V80.0001H199V42.0001H279V0.00012207H157ZM274 5.00012H162V237H254V217H274V105H254V85.0001H194V37.0001H274V5.00012Z" fill="#EBE965"/>
<path fill-rule="evenodd" clip-rule="evenodd" d="M80 82.0001H122V20.0001H102V0.00012207H20V20.0001H0V222H20V242H102V222H122V160H80V200H42V42.0001H80V82.0001ZM117 77.0001H85V37.0001H37V205H85V165H117V217H97V237H25V217H5V25.0001H25V5.00012H97V25.0001H117V77.0001Z" fill="#EBE965"/>
</svg>
