<svg width="266" height="266" viewBox="0 0 266 266" fill="none" xmlns="http://www.w3.org/2000/svg">
<g id="LOGOVector">
<path d="M191.19 191.19H357.524V357.524H191.19V191.19Z" fill="#2D2650"/>
<path fill-rule="evenodd" clip-rule="evenodd" d="M546.802 273.401C546.802 424.396 424.396 546.802 273.401 546.802C122.406 546.802 0 424.396 0 273.401C0 122.406 122.406 0 273.401 0C424.396 0 546.802 122.406 546.802 273.401ZM273.401 468.414C380.048 468.414 466.502 381.96 466.502 275.313C466.502 168.666 380.048 82.2115 273.401 82.2115C166.754 82.2115 80.2996 168.666 80.2996 275.313C80.2996 381.96 166.754 468.414 273.401 468.414Z" fill="#DFDC01"/>
</g>
</svg>
