<svg width="884" height="116" viewBox="0 0 884 116" fill="none" xmlns="http://www.w3.org/2000/svg">
<circle cx="58" cy="58" r="58" fill="#DFDC01"/>
<path d="M48.4706 79.0588C48.4706 79.0588 48.4706 78.7745 48.4706 78.2059V76.2353V74.2647V73.4118H49.3235H51.2941H53.2647H54.1176C54.1176 73.4118 54.1176 73.6961 54.1176 74.2647V76.2353V78.2059V79.0588C54.1176 79.0588 53.8333 79.0588 53.2647 79.0588H51.2941H49.3235H48.4706ZM52 79.0588C52 79.0588 52 78.7745 52 78.2059V76.2353V74.2647V73.4118H52.8529H54.8235H56.7941H57.6471C57.6471 73.4118 57.6471 73.6961 57.6471 74.2647V76.2353V78.2059V79.0588C57.6471 79.0588 57.3627 79.0588 56.7941 79.0588H54.8235H52.8529H52ZM55.5294 79.0588C55.5294 79.0588 55.5294 78.7745 55.5294 78.2059V76.2353V74.2647V73.4118H56.3824H58.3529H60.3235H61.1765C61.1765 73.4118 61.1765 73.6961 61.1765 74.2647V76.2353V78.2059V79.0588C61.1765 79.0588 60.8922 79.0588 60.3235 79.0588H58.3529H56.3824H55.5294ZM59.0588 79.0588C59.0588 79.0588 59.0588 78.7745 59.0588 78.2059V76.2353V74.2647V73.4118H59.9118H61.8824H63.8529H64.7059C64.7059 73.4118 64.7059 73.6961 64.7059 74.2647V76.2353V78.2059V79.0588C64.7059 79.0588 64.4216 79.0588 63.8529 79.0588H61.8824H59.9118H59.0588ZM62.5882 79.0588C62.5882 79.0588 62.5882 78.7745 62.5882 78.2059V76.2353V74.2647V73.4118H63.4412H65.4118H67.3824H68.2353C68.2353 73.4118 68.2353 73.6961 68.2353 74.2647V76.2353V78.2059V79.0588C68.2353 79.0588 67.951 79.0588 67.3824 79.0588H65.4118H63.4412H62.5882ZM55.5294 75.5294C55.5294 75.5294 55.5294 75.2451 55.5294 74.6765V72.7059V70.7353V69.8824H56.3824H58.3529H60.3235H61.1765C61.1765 69.8824 61.1765 70.1667 61.1765 70.7353V72.7059V74.6765V75.5294C61.1765 75.5294 60.8922 75.5294 60.3235 75.5294H58.3529H56.3824H55.5294ZM55.5294 72C55.5294 72 55.5294 71.7157 55.5294 71.1471V69.1765V67.2059V66.3529H56.3824H58.3529H60.3235H61.1765C61.1765 66.3529 61.1765 66.6373 61.1765 67.2059V69.1765V71.1471V72C61.1765 72 60.8922 72 60.3235 72H58.3529H56.3824H55.5294ZM55.5294 68.4706C55.5294 68.4706 55.5294 68.1863 55.5294 67.6176V65.6471V63.6765V62.8235H56.3824H58.3529H60.3235H61.1765C61.1765 62.8235 61.1765 63.1078 61.1765 63.6765V65.6471V67.6176V68.4706C61.1765 68.4706 60.8922 68.4706 60.3235 68.4706H58.3529H56.3824H55.5294ZM55.5294 64.9412C55.5294 64.9412 55.5294 64.6569 55.5294 64.0882V62.1176V60.1471V59.2941H56.3824H58.3529H60.3235H61.1765C61.1765 59.2941 61.1765 59.5784 61.1765 60.1471V62.1176V64.0882V64.9412C61.1765 64.9412 60.8922 64.9412 60.3235 64.9412H58.3529H56.3824H55.5294ZM55.5294 61.4118C55.5294 61.4118 55.5294 61.1274 55.5294 60.5588V58.5882V56.6176V55.7647H56.3824H58.3529H60.3235H61.1765C61.1765 55.7647 61.1765 56.049 61.1765 56.6176V58.5882V60.5588V61.4118C61.1765 61.4118 60.8922 61.4118 60.3235 61.4118H58.3529H56.3824H55.5294ZM55.5294 57.8824C55.5294 57.8824 55.5294 57.598 55.5294 57.0294V55.0588V53.0882V52.2353H56.3824H58.3529H60.3235H61.1765C61.1765 52.2353 61.1765 52.5196 61.1765 53.0882V55.0588V57.0294V57.8824C61.1765 57.8824 60.8922 57.8824 60.3235 57.8824H58.3529H56.3824H55.5294ZM55.5294 54.3529C55.5294 54.3529 55.5294 54.0686 55.5294 53.5V51.5294V49.5588V48.7059H56.3824H58.3529H60.3235H61.1765C61.1765 48.7059 61.1765 48.9902 61.1765 49.5588V51.5294V53.5V54.3529C61.1765 54.3529 60.8922 54.3529 60.3235 54.3529H58.3529H56.3824H55.5294ZM55.5294 50.8235C55.5294 50.8235 55.5294 50.5392 55.5294 49.9706V48V46.0294V45.1765H56.3824H58.3529H60.3235H61.1765C61.1765 45.1765 61.1765 45.4608 61.1765 46.0294V48V49.9706V50.8235C61.1765 50.8235 60.8922 50.8235 60.3235 50.8235H58.3529H56.3824H55.5294ZM48.4706 47.2941C48.4706 47.2941 48.4706 47.0098 48.4706 46.4412V44.4706V42.5V41.6471H49.3235H51.2941H53.2647H54.1176C54.1176 41.6471 54.1176 41.9314 54.1176 42.5V44.4706V46.4412V47.2941C54.1176 47.2941 53.8333 47.2941 53.2647 47.2941H51.2941H49.3235H48.4706ZM55.5294 47.2941C55.5294 47.2941 55.5294 47.0098 55.5294 46.4412V44.4706V42.5V41.6471H56.3824H58.3529H60.3235H61.1765C61.1765 41.6471 61.1765 41.9314 61.1765 42.5V44.4706V46.4412V47.2941C61.1765 47.2941 60.8922 47.2941 60.3235 47.2941H58.3529H56.3824H55.5294ZM52 45.5294C52 45.5294 52 45.2451 52 44.6765V42.7059V40.7353V39.8824H52.8529H54.8235H56.7941H57.6471C57.6471 39.8824 57.6471 40.1667 57.6471 40.7353V42.7059V44.6765V45.5294C57.6471 45.5294 57.3627 45.5294 56.7941 45.5294H54.8235H52.8529H52ZM55.5294 43.7647C55.5294 43.7647 55.5294 43.4804 55.5294 42.9118V40.9412V38.9706V38.1176H56.3824H58.3529H60.3235H61.1765C61.1765 38.1176 61.1765 38.402 61.1765 38.9706V40.9412V42.9118V43.7647C61.1765 43.7647 60.8922 43.7647 60.3235 43.7647H58.3529H56.3824H55.5294Z" fill="white"/>
<circle cx="442" cy="58" r="58" fill="#2D2650"/>
<path d="M432.471 79.0588C432.471 79.0588 432.471 78.7745 432.471 78.2059V76.2353V74.2647V73.4118H433.324H435.294H437.265H438.118C438.118 73.4118 438.118 73.6961 438.118 74.2647V76.2353V78.2059V79.0588C438.118 79.0588 437.833 79.0588 437.265 79.0588H435.294H433.324H432.471ZM436 79.0588C436 79.0588 436 78.7745 436 78.2059V76.2353V74.2647V73.4118H436.853H438.824H440.794H441.647C441.647 73.4118 441.647 73.6961 441.647 74.2647V76.2353V78.2059V79.0588C441.647 79.0588 441.363 79.0588 440.794 79.0588H438.824H436.853H436ZM439.529 79.0588C439.529 79.0588 439.529 78.7745 439.529 78.2059V76.2353V74.2647V73.4118H440.382H442.353H444.324H445.176C445.176 73.4118 445.176 73.6961 445.176 74.2647V76.2353V78.2059V79.0588C445.176 79.0588 444.892 79.0588 444.324 79.0588H442.353H440.382H439.529ZM443.059 79.0588C443.059 79.0588 443.059 78.7745 443.059 78.2059V76.2353V74.2647V73.4118H443.912H445.882H447.853H448.706C448.706 73.4118 448.706 73.6961 448.706 74.2647V76.2353V78.2059V79.0588C448.706 79.0588 448.422 79.0588 447.853 79.0588H445.882H443.912H443.059ZM446.588 79.0588C446.588 79.0588 446.588 78.7745 446.588 78.2059V76.2353V74.2647V73.4118H447.441H449.412H451.382H452.235C452.235 73.4118 452.235 73.6961 452.235 74.2647V76.2353V78.2059V79.0588C452.235 79.0588 451.951 79.0588 451.382 79.0588H449.412H447.441H446.588ZM436 75.5294C436 75.5294 436 75.2451 436 74.6765V72.7059V70.7353V69.8824H436.853H438.824H440.794H441.647C441.647 69.8824 441.647 70.1667 441.647 70.7353V72.7059V74.6765V75.5294C441.647 75.5294 441.363 75.5294 440.794 75.5294H438.824H436.853H436ZM437.765 72C437.765 72 437.765 71.7157 437.765 71.1471V69.1765V67.2059V66.3529H438.618H440.588H442.559H443.412C443.412 66.3529 443.412 66.6373 443.412 67.2059V69.1765V71.1471V72C443.412 72 443.127 72 442.559 72H440.588H438.618H437.765ZM439.529 68.4706C439.529 68.4706 439.529 68.1863 439.529 67.6176V65.6471V63.6765V62.8235H440.382H442.353H444.324H445.176C445.176 62.8235 445.176 63.1078 445.176 63.6765V65.6471V67.6176V68.4706C445.176 68.4706 444.892 68.4706 444.324 68.4706H442.353H440.382H439.529ZM441.294 64.9412C441.294 64.9412 441.294 64.6569 441.294 64.0882V62.1176V60.1471V59.2941H442.147H444.118H446.088H446.941C446.941 59.2941 446.941 59.5784 446.941 60.1471V62.1176V64.0882V64.9412C446.941 64.9412 446.657 64.9412 446.088 64.9412H444.118H442.147H441.294ZM443.059 61.4118C443.059 61.4118 443.059 61.1274 443.059 60.5588V58.5882V56.6176V55.7647H443.912H445.882H447.853H448.706C448.706 55.7647 448.706 56.049 448.706 56.6176V58.5882V60.5588V61.4118C448.706 61.4118 448.422 61.4118 447.853 61.4118H445.882H443.912H443.059ZM444.824 57.8824C444.824 57.8824 444.824 57.598 444.824 57.0294V55.0588V53.0882V52.2353H445.676H447.647H449.618H450.471C450.471 52.2353 450.471 52.5196 450.471 53.0882V55.0588V57.0294V57.8824C450.471 57.8824 450.186 57.8824 449.618 57.8824H447.647H445.676H444.824ZM432.471 54.3529C432.471 54.3529 432.471 54.0686 432.471 53.5V51.5294V49.5588V48.7059H433.324H435.294H437.265H438.118C438.118 48.7059 438.118 48.9902 438.118 49.5588V51.5294V53.5V54.3529C438.118 54.3529 437.833 54.3529 437.265 54.3529H435.294H433.324H432.471ZM446.588 54.3529C446.588 54.3529 446.588 54.0686 446.588 53.5V51.5294V49.5588V48.7059H447.441H449.412H451.382H452.235C452.235 48.7059 452.235 48.9902 452.235 49.5588V51.5294V53.5V54.3529C452.235 54.3529 451.951 54.3529 451.382 54.3529H449.412H447.441H446.588ZM432.471 50.8235C432.471 50.8235 432.471 50.5392 432.471 49.9706V48V46.0294V45.1765H433.324H435.294H437.265H438.118C438.118 45.1765 438.118 45.4608 438.118 46.0294V48V49.9706V50.8235C438.118 50.8235 437.833 50.8235 437.265 50.8235H435.294H433.324H432.471ZM446.588 50.8235C446.588 50.8235 446.588 50.5392 446.588 49.9706V48V46.0294V45.1765H447.441H449.412H451.382H452.235C452.235 45.1765 452.235 45.4608 452.235 46.0294V48V49.9706V50.8235C452.235 50.8235 451.951 50.8235 451.382 50.8235H449.412H447.441H446.588ZM432.471 47.2941C432.471 47.2941 432.471 47.0098 432.471 46.4412V44.4706V42.5V41.6471H433.324H435.294H437.265H438.118C438.118 41.6471 438.118 41.9314 438.118 42.5V44.4706V46.4412V47.2941C438.118 47.2941 437.833 47.2941 437.265 47.2941H435.294H433.324H432.471ZM446.588 47.2941C446.588 47.2941 446.588 47.0098 446.588 46.4412V44.4706V42.5V41.6471H447.441H449.412H451.382H452.235C452.235 41.6471 452.235 41.9314 452.235 42.5V44.4706V46.4412V47.2941C452.235 47.2941 451.951 47.2941 451.382 47.2941H449.412H447.441H446.588ZM436 43.7647C436 43.7647 436 43.4804 436 42.9118V40.9412V38.9706V38.1176H436.853H438.824H440.794H441.647C441.647 38.1176 441.647 38.402 441.647 38.9706V40.9412V42.9118V43.7647C441.647 43.7647 441.363 43.7647 440.794 43.7647H438.824H436.853H436ZM439.529 43.7647C439.529 43.7647 439.529 43.4804 439.529 42.9118V40.9412V38.9706V38.1176H440.382H442.353H444.324H445.176C445.176 38.1176 445.176 38.402 445.176 38.9706V40.9412V42.9118V43.7647C445.176 43.7647 444.892 43.7647 444.324 43.7647H442.353H440.382H439.529ZM443.059 43.7647C443.059 43.7647 443.059 43.4804 443.059 42.9118V40.9412V38.9706V38.1176H443.912H445.882H447.853H448.706C448.706 38.1176 448.706 38.402 448.706 38.9706V40.9412V42.9118V43.7647C448.706 43.7647 448.422 43.7647 447.853 43.7647H445.882H443.912H443.059Z" fill="white"/>
<circle cx="826" cy="58" r="58" fill="#F5F5F5"/>
<path d="M820 79.0588C820 79.0588 820 78.7745 820 78.2059V76.2353V74.2647V73.4118H820.853H822.824H824.794H825.647C825.647 73.4118 825.647 73.6961 825.647 74.2647V76.2353V78.2059V79.0588C825.647 79.0588 825.363 79.0588 824.794 79.0588H822.824H820.853H820ZM823.529 79.0588C823.529 79.0588 823.529 78.7745 823.529 78.2059V76.2353V74.2647V73.4118H824.382H826.353H828.324H829.176C829.176 73.4118 829.176 73.6961 829.176 74.2647V76.2353V78.2059V79.0588C829.176 79.0588 828.892 79.0588 828.324 79.0588H826.353H824.382H823.529ZM827.059 79.0588C827.059 79.0588 827.059 78.7745 827.059 78.2059V76.2353V74.2647V73.4118H827.912H829.882H831.853H832.706C832.706 73.4118 832.706 73.6961 832.706 74.2647V76.2353V78.2059V79.0588C832.706 79.0588 832.422 79.0588 831.853 79.0588H829.882H827.912H827.059ZM816.471 75.5294C816.471 75.5294 816.471 75.2451 816.471 74.6765V72.7059V70.7353V69.8824H817.324H819.294H821.265H822.118C822.118 69.8824 822.118 70.1667 822.118 70.7353V72.7059V74.6765V75.5294C822.118 75.5294 821.833 75.5294 821.265 75.5294H819.294H817.324H816.471ZM830.588 75.5294C830.588 75.5294 830.588 75.2451 830.588 74.6765V72.7059V70.7353V69.8824H831.441H833.412H835.382H836.235C836.235 69.8824 836.235 70.1667 836.235 70.7353V72.7059V74.6765V75.5294C836.235 75.5294 835.951 75.5294 835.382 75.5294H833.412H831.441H830.588ZM816.471 72C816.471 72 816.471 71.7157 816.471 71.1471V69.1765V67.2059V66.3529H817.324H819.294H821.265H822.118C822.118 66.3529 822.118 66.6373 822.118 67.2059V69.1765V71.1471V72C822.118 72 821.833 72 821.265 72H819.294H817.324H816.471ZM830.588 72C830.588 72 830.588 71.7157 830.588 71.1471V69.1765V67.2059V66.3529H831.441H833.412H835.382H836.235C836.235 66.3529 836.235 66.6373 836.235 67.2059V69.1765V71.1471V72C836.235 72 835.951 72 835.382 72H833.412H831.441H830.588ZM830.588 68.4706C830.588 68.4706 830.588 68.1863 830.588 67.6176V65.6471V63.6765V62.8235H831.441H833.412H835.382H836.235C836.235 62.8235 836.235 63.1078 836.235 63.6765V65.6471V67.6176V68.4706C836.235 68.4706 835.951 68.4706 835.382 68.4706H833.412H831.441H830.588ZM830.588 64.9412C830.588 64.9412 830.588 64.6569 830.588 64.0882V62.1176V60.1471V59.2941H831.441H833.412H835.382H836.235C836.235 59.2941 836.235 59.5784 836.235 60.1471V62.1176V64.0882V64.9412C836.235 64.9412 835.951 64.9412 835.382 64.9412H833.412H831.441H830.588ZM820 61.4118C820 61.4118 820 61.1274 820 60.5588V58.5882V56.6176V55.7647H820.853H822.824H824.794H825.647C825.647 55.7647 825.647 56.049 825.647 56.6176V58.5882V60.5588V61.4118C825.647 61.4118 825.363 61.4118 824.794 61.4118H822.824H820.853H820ZM823.529 61.4118C823.529 61.4118 823.529 61.1274 823.529 60.5588V58.5882V56.6176V55.7647H824.382H826.353H828.324H829.176C829.176 55.7647 829.176 56.049 829.176 56.6176V58.5882V60.5588V61.4118C829.176 61.4118 828.892 61.4118 828.324 61.4118H826.353H824.382H823.529ZM827.059 61.4118C827.059 61.4118 827.059 61.1274 827.059 60.5588V58.5882V56.6176V55.7647H827.912H829.882H831.853H832.706C832.706 55.7647 832.706 56.049 832.706 56.6176V58.5882V60.5588V61.4118C832.706 61.4118 832.422 61.4118 831.853 61.4118H829.882H827.912H827.059ZM830.588 57.8824C830.588 57.8824 830.588 57.598 830.588 57.0294V55.0588V53.0882V52.2353H831.441H833.412H835.382H836.235C836.235 52.2353 836.235 52.5196 836.235 53.0882V55.0588V57.0294V57.8824C836.235 57.8824 835.951 57.8824 835.382 57.8824H833.412H831.441H830.588ZM830.588 54.3529C830.588 54.3529 830.588 54.0686 830.588 53.5V51.5294V49.5588V48.7059H831.441H833.412H835.382H836.235C836.235 48.7059 836.235 48.9902 836.235 49.5588V51.5294V53.5V54.3529C836.235 54.3529 835.951 54.3529 835.382 54.3529H833.412H831.441H830.588ZM816.471 50.8235C816.471 50.8235 816.471 50.5392 816.471 49.9706V48V46.0294V45.1765H817.324H819.294H821.265H822.118C822.118 45.1765 822.118 45.4608 822.118 46.0294V48V49.9706V50.8235C822.118 50.8235 821.833 50.8235 821.265 50.8235H819.294H817.324H816.471ZM830.588 50.8235C830.588 50.8235 830.588 50.5392 830.588 49.9706V48V46.0294V45.1765H831.441H833.412H835.382H836.235C836.235 45.1765 836.235 45.4608 836.235 46.0294V48V49.9706V50.8235C836.235 50.8235 835.951 50.8235 835.382 50.8235H833.412H831.441H830.588ZM816.471 47.2941C816.471 47.2941 816.471 47.0098 816.471 46.4412V44.4706V42.5V41.6471H817.324H819.294H821.265H822.118C822.118 41.6471 822.118 41.9314 822.118 42.5V44.4706V46.4412V47.2941C822.118 47.2941 821.833 47.2941 821.265 47.2941H819.294H817.324H816.471ZM830.588 47.2941C830.588 47.2941 830.588 47.0098 830.588 46.4412V44.4706V42.5V41.6471H831.441H833.412H835.382H836.235C836.235 41.6471 836.235 41.9314 836.235 42.5V44.4706V46.4412V47.2941C836.235 47.2941 835.951 47.2941 835.382 47.2941H833.412H831.441H830.588ZM820 43.7647C820 43.7647 820 43.4804 820 42.9118V40.9412V38.9706V38.1176H820.853H822.824H824.794H825.647C825.647 38.1176 825.647 38.402 825.647 38.9706V40.9412V42.9118V43.7647C825.647 43.7647 825.363 43.7647 824.794 43.7647H822.824H820.853H820ZM823.529 43.7647C823.529 43.7647 823.529 43.4804 823.529 42.9118V40.9412V38.9706V38.1176H824.382H826.353H828.324H829.176C829.176 38.1176 829.176 38.402 829.176 38.9706V40.9412V42.9118V43.7647C829.176 43.7647 828.892 43.7647 828.324 43.7647H826.353H824.382H823.529ZM827.059 43.7647C827.059 43.7647 827.059 43.4804 827.059 42.9118V40.9412V38.9706V38.1176H827.912H829.882H831.853H832.706C832.706 38.1176 832.706 38.402 832.706 38.9706V40.9412V42.9118V43.7647C832.706 43.7647 832.422 43.7647 831.853 43.7647H829.882H827.912H827.059Z" fill="#2D2650"/>
</svg>
