<svg width="116" height="116" viewBox="0 0 116 116" fill="none" xmlns="http://www.w3.org/2000/svg">
<circle cx="58" cy="58" r="58" fill="#DFDC01"/>
<path d="M48.4706 79.0588C48.4706 79.0588 48.4706 78.7745 48.4706 78.2059V76.2353V74.2647V73.4118H49.3235H51.2941H53.2647H54.1176C54.1176 73.4118 54.1176 73.6961 54.1176 74.2647V76.2353V78.2059V79.0588C54.1176 79.0588 53.8333 79.0588 53.2647 79.0588H51.2941H49.3235H48.4706ZM52 79.0588C52 79.0588 52 78.7745 52 78.2059V76.2353V74.2647V73.4118H52.8529H54.8235H56.7941H57.6471C57.6471 73.4118 57.6471 73.6961 57.6471 74.2647V76.2353V78.2059V79.0588C57.6471 79.0588 57.3627 79.0588 56.7941 79.0588H54.8235H52.8529H52ZM55.5294 79.0588C55.5294 79.0588 55.5294 78.7745 55.5294 78.2059V76.2353V74.2647V73.4118H56.3824H58.3529H60.3235H61.1765C61.1765 73.4118 61.1765 73.6961 61.1765 74.2647V76.2353V78.2059V79.0588C61.1765 79.0588 60.8922 79.0588 60.3235 79.0588H58.3529H56.3824H55.5294ZM59.0588 79.0588C59.0588 79.0588 59.0588 78.7745 59.0588 78.2059V76.2353V74.2647V73.4118H59.9118H61.8824H63.8529H64.7059C64.7059 73.4118 64.7059 73.6961 64.7059 74.2647V76.2353V78.2059V79.0588C64.7059 79.0588 64.4216 79.0588 63.8529 79.0588H61.8824H59.9118H59.0588ZM62.5882 79.0588C62.5882 79.0588 62.5882 78.7745 62.5882 78.2059V76.2353V74.2647V73.4118H63.4412H65.4118H67.3824H68.2353C68.2353 73.4118 68.2353 73.6961 68.2353 74.2647V76.2353V78.2059V79.0588C68.2353 79.0588 67.951 79.0588 67.3824 79.0588H65.4118H63.4412H62.5882ZM55.5294 75.5294C55.5294 75.5294 55.5294 75.2451 55.5294 74.6765V72.7059V70.7353V69.8824H56.3824H58.3529H60.3235H61.1765C61.1765 69.8824 61.1765 70.1667 61.1765 70.7353V72.7059V74.6765V75.5294C61.1765 75.5294 60.8922 75.5294 60.3235 75.5294H58.3529H56.3824H55.5294ZM55.5294 72C55.5294 72 55.5294 71.7157 55.5294 71.1471V69.1765V67.2059V66.3529H56.3824H58.3529H60.3235H61.1765C61.1765 66.3529 61.1765 66.6373 61.1765 67.2059V69.1765V71.1471V72C61.1765 72 60.8922 72 60.3235 72H58.3529H56.3824H55.5294ZM55.5294 68.4706C55.5294 68.4706 55.5294 68.1863 55.5294 67.6176V65.6471V63.6765V62.8235H56.3824H58.3529H60.3235H61.1765C61.1765 62.8235 61.1765 63.1078 61.1765 63.6765V65.6471V67.6176V68.4706C61.1765 68.4706 60.8922 68.4706 60.3235 68.4706H58.3529H56.3824H55.5294ZM55.5294 64.9412C55.5294 64.9412 55.5294 64.6569 55.5294 64.0882V62.1176V60.1471V59.2941H56.3824H58.3529H60.3235H61.1765C61.1765 59.2941 61.1765 59.5784 61.1765 60.1471V62.1176V64.0882V64.9412C61.1765 64.9412 60.8922 64.9412 60.3235 64.9412H58.3529H56.3824H55.5294ZM55.5294 61.4118C55.5294 61.4118 55.5294 61.1274 55.5294 60.5588V58.5882V56.6176V55.7647H56.3824H58.3529H60.3235H61.1765C61.1765 55.7647 61.1765 56.049 61.1765 56.6176V58.5882V60.5588V61.4118C61.1765 61.4118 60.8922 61.4118 60.3235 61.4118H58.3529H56.3824H55.5294ZM55.5294 57.8824C55.5294 57.8824 55.5294 57.598 55.5294 57.0294V55.0588V53.0882V52.2353H56.3824H58.3529H60.3235H61.1765C61.1765 52.2353 61.1765 52.5196 61.1765 53.0882V55.0588V57.0294V57.8824C61.1765 57.8824 60.8922 57.8824 60.3235 57.8824H58.3529H56.3824H55.5294ZM55.5294 54.3529C55.5294 54.3529 55.5294 54.0686 55.5294 53.5V51.5294V49.5588V48.7059H56.3824H58.3529H60.3235H61.1765C61.1765 48.7059 61.1765 48.9902 61.1765 49.5588V51.5294V53.5V54.3529C61.1765 54.3529 60.8922 54.3529 60.3235 54.3529H58.3529H56.3824H55.5294ZM55.5294 50.8235C55.5294 50.8235 55.5294 50.5392 55.5294 49.9706V48V46.0294V45.1765H56.3824H58.3529H60.3235H61.1765C61.1765 45.1765 61.1765 45.4608 61.1765 46.0294V48V49.9706V50.8235C61.1765 50.8235 60.8922 50.8235 60.3235 50.8235H58.3529H56.3824H55.5294ZM48.4706 47.2941C48.4706 47.2941 48.4706 47.0098 48.4706 46.4412V44.4706V42.5V41.6471H49.3235H51.2941H53.2647H54.1176C54.1176 41.6471 54.1176 41.9314 54.1176 42.5V44.4706V46.4412V47.2941C54.1176 47.2941 53.8333 47.2941 53.2647 47.2941H51.2941H49.3235H48.4706ZM55.5294 47.2941C55.5294 47.2941 55.5294 47.0098 55.5294 46.4412V44.4706V42.5V41.6471H56.3824H58.3529H60.3235H61.1765C61.1765 41.6471 61.1765 41.9314 61.1765 42.5V44.4706V46.4412V47.2941C61.1765 47.2941 60.8922 47.2941 60.3235 47.2941H58.3529H56.3824H55.5294ZM52 45.5294C52 45.5294 52 45.2451 52 44.6765V42.7059V40.7353V39.8824H52.8529H54.8235H56.7941H57.6471C57.6471 39.8824 57.6471 40.1667 57.6471 40.7353V42.7059V44.6765V45.5294C57.6471 45.5294 57.3627 45.5294 56.7941 45.5294H54.8235H52.8529H52ZM55.5294 43.7647C55.5294 43.7647 55.5294 43.4804 55.5294 42.9118V40.9412V38.9706V38.1176H56.3824H58.3529H60.3235H61.1765C61.1765 38.1176 61.1765 38.402 61.1765 38.9706V40.9412V42.9118V43.7647C61.1765 43.7647 60.8922 43.7647 60.3235 43.7647H58.3529H56.3824H55.5294Z" fill="white"/>
</svg>
