<svg width="116" height="116" viewBox="0 0 116 116" fill="none" xmlns="http://www.w3.org/2000/svg">
<circle cx="58" cy="58" r="58" fill="#2D2650"/>
<path d="M48.4706 79.0588C48.4706 79.0588 48.4706 78.7745 48.4706 78.2059V76.2353V74.2647V73.4118H49.3235H51.2941H53.2647H54.1176C54.1176 73.4118 54.1176 73.6961 54.1176 74.2647V76.2353V78.2059V79.0588C54.1176 79.0588 53.8333 79.0588 53.2647 79.0588H51.2941H49.3235H48.4706ZM52 79.0588C52 79.0588 52 78.7745 52 78.2059V76.2353V74.2647V73.4118H52.8529H54.8235H56.7941H57.6471C57.6471 73.4118 57.6471 73.6961 57.6471 74.2647V76.2353V78.2059V79.0588C57.6471 79.0588 57.3627 79.0588 56.7941 79.0588H54.8235H52.8529H52ZM55.5294 79.0588C55.5294 79.0588 55.5294 78.7745 55.5294 78.2059V76.2353V74.2647V73.4118H56.3824H58.3529H60.3235H61.1765C61.1765 73.4118 61.1765 73.6961 61.1765 74.2647V76.2353V78.2059V79.0588C61.1765 79.0588 60.8922 79.0588 60.3235 79.0588H58.3529H56.3824H55.5294ZM59.0588 79.0588C59.0588 79.0588 59.0588 78.7745 59.0588 78.2059V76.2353V74.2647V73.4118H59.9118H61.8824H63.8529H64.7059C64.7059 73.4118 64.7059 73.6961 64.7059 74.2647V76.2353V78.2059V79.0588C64.7059 79.0588 64.4216 79.0588 63.8529 79.0588H61.8824H59.9118H59.0588ZM62.5882 79.0588C62.5882 79.0588 62.5882 78.7745 62.5882 78.2059V76.2353V74.2647V73.4118H63.4412H65.4118H67.3824H68.2353C68.2353 73.4118 68.2353 73.6961 68.2353 74.2647V76.2353V78.2059V79.0588C68.2353 79.0588 67.951 79.0588 67.3824 79.0588H65.4118H63.4412H62.5882ZM52 75.5294C52 75.5294 52 75.2451 52 74.6765V72.7059V70.7353V69.8824H52.8529H54.8235H56.7941H57.6471C57.6471 69.8824 57.6471 70.1667 57.6471 70.7353V72.7059V74.6765V75.5294C57.6471 75.5294 57.3627 75.5294 56.7941 75.5294H54.8235H52.8529H52ZM53.7647 72C53.7647 72 53.7647 71.7157 53.7647 71.1471V69.1765V67.2059V66.3529H54.6176H56.5882H58.5588H59.4118C59.4118 66.3529 59.4118 66.6373 59.4118 67.2059V69.1765V71.1471V72C59.4118 72 59.1275 72 58.5588 72H56.5882H54.6176H53.7647ZM55.5294 68.4706C55.5294 68.4706 55.5294 68.1863 55.5294 67.6176V65.6471V63.6765V62.8235H56.3824H58.3529H60.3235H61.1765C61.1765 62.8235 61.1765 63.1078 61.1765 63.6765V65.6471V67.6176V68.4706C61.1765 68.4706 60.8922 68.4706 60.3235 68.4706H58.3529H56.3824H55.5294ZM57.2941 64.9412C57.2941 64.9412 57.2941 64.6569 57.2941 64.0882V62.1176V60.1471V59.2941H58.1471H60.1176H62.0882H62.9412C62.9412 59.2941 62.9412 59.5784 62.9412 60.1471V62.1176V64.0882V64.9412C62.9412 64.9412 62.6569 64.9412 62.0882 64.9412H60.1176H58.1471H57.2941ZM59.0588 61.4118C59.0588 61.4118 59.0588 61.1274 59.0588 60.5588V58.5882V56.6176V55.7647H59.9118H61.8824H63.8529H64.7059C64.7059 55.7647 64.7059 56.049 64.7059 56.6176V58.5882V60.5588V61.4118C64.7059 61.4118 64.4216 61.4118 63.8529 61.4118H61.8824H59.9118H59.0588ZM60.8235 57.8824C60.8235 57.8824 60.8235 57.598 60.8235 57.0294V55.0588V53.0882V52.2353H61.6765H63.6471H65.6176H66.4706C66.4706 52.2353 66.4706 52.5196 66.4706 53.0882V55.0588V57.0294V57.8824C66.4706 57.8824 66.1863 57.8824 65.6176 57.8824H63.6471H61.6765H60.8235ZM48.4706 54.3529C48.4706 54.3529 48.4706 54.0686 48.4706 53.5V51.5294V49.5588V48.7059H49.3235H51.2941H53.2647H54.1176C54.1176 48.7059 54.1176 48.9902 54.1176 49.5588V51.5294V53.5V54.3529C54.1176 54.3529 53.8333 54.3529 53.2647 54.3529H51.2941H49.3235H48.4706ZM62.5882 54.3529C62.5882 54.3529 62.5882 54.0686 62.5882 53.5V51.5294V49.5588V48.7059H63.4412H65.4118H67.3824H68.2353C68.2353 48.7059 68.2353 48.9902 68.2353 49.5588V51.5294V53.5V54.3529C68.2353 54.3529 67.951 54.3529 67.3824 54.3529H65.4118H63.4412H62.5882ZM48.4706 50.8235C48.4706 50.8235 48.4706 50.5392 48.4706 49.9706V48V46.0294V45.1765H49.3235H51.2941H53.2647H54.1176C54.1176 45.1765 54.1176 45.4608 54.1176 46.0294V48V49.9706V50.8235C54.1176 50.8235 53.8333 50.8235 53.2647 50.8235H51.2941H49.3235H48.4706ZM62.5882 50.8235C62.5882 50.8235 62.5882 50.5392 62.5882 49.9706V48V46.0294V45.1765H63.4412H65.4118H67.3824H68.2353C68.2353 45.1765 68.2353 45.4608 68.2353 46.0294V48V49.9706V50.8235C68.2353 50.8235 67.951 50.8235 67.3824 50.8235H65.4118H63.4412H62.5882ZM48.4706 47.2941C48.4706 47.2941 48.4706 47.0098 48.4706 46.4412V44.4706V42.5V41.6471H49.3235H51.2941H53.2647H54.1176C54.1176 41.6471 54.1176 41.9314 54.1176 42.5V44.4706V46.4412V47.2941C54.1176 47.2941 53.8333 47.2941 53.2647 47.2941H51.2941H49.3235H48.4706ZM62.5882 47.2941C62.5882 47.2941 62.5882 47.0098 62.5882 46.4412V44.4706V42.5V41.6471H63.4412H65.4118H67.3824H68.2353C68.2353 41.6471 68.2353 41.9314 68.2353 42.5V44.4706V46.4412V47.2941C68.2353 47.2941 67.951 47.2941 67.3824 47.2941H65.4118H63.4412H62.5882ZM52 43.7647C52 43.7647 52 43.4804 52 42.9118V40.9412V38.9706V38.1176H52.8529H54.8235H56.7941H57.6471C57.6471 38.1176 57.6471 38.402 57.6471 38.9706V40.9412V42.9118V43.7647C57.6471 43.7647 57.3627 43.7647 56.7941 43.7647H54.8235H52.8529H52ZM55.5294 43.7647C55.5294 43.7647 55.5294 43.4804 55.5294 42.9118V40.9412V38.9706V38.1176H56.3824H58.3529H60.3235H61.1765C61.1765 38.1176 61.1765 38.402 61.1765 38.9706V40.9412V42.9118V43.7647C61.1765 43.7647 60.8922 43.7647 60.3235 43.7647H58.3529H56.3824H55.5294ZM59.0588 43.7647C59.0588 43.7647 59.0588 43.4804 59.0588 42.9118V40.9412V38.9706V38.1176H59.9118H61.8824H63.8529H64.7059C64.7059 38.1176 64.7059 38.402 64.7059 38.9706V40.9412V42.9118V43.7647C64.7059 43.7647 64.4216 43.7647 63.8529 43.7647H61.8824H59.9118H59.0588Z" fill="white"/>
</svg>
