<svg width="116" height="116" viewBox="0 0 116 116" fill="none" xmlns="http://www.w3.org/2000/svg">
<circle cx="58" cy="58" r="58" fill="#F5F5F5"/>
<path d="M52 79.0588C52 79.0588 52 78.7745 52 78.2059V76.2353V74.2647V73.4118H52.8529H54.8235H56.7941H57.6471C57.6471 73.4118 57.6471 73.6961 57.6471 74.2647V76.2353V78.2059V79.0588C57.6471 79.0588 57.3627 79.0588 56.7941 79.0588H54.8235H52.8529H52ZM55.5294 79.0588C55.5294 79.0588 55.5294 78.7745 55.5294 78.2059V76.2353V74.2647V73.4118H56.3824H58.3529H60.3235H61.1765C61.1765 73.4118 61.1765 73.6961 61.1765 74.2647V76.2353V78.2059V79.0588C61.1765 79.0588 60.8922 79.0588 60.3235 79.0588H58.3529H56.3824H55.5294ZM59.0588 79.0588C59.0588 79.0588 59.0588 78.7745 59.0588 78.2059V76.2353V74.2647V73.4118H59.9118H61.8824H63.8529H64.7059C64.7059 73.4118 64.7059 73.6961 64.7059 74.2647V76.2353V78.2059V79.0588C64.7059 79.0588 64.4216 79.0588 63.8529 79.0588H61.8824H59.9118H59.0588ZM48.4706 75.5294C48.4706 75.5294 48.4706 75.2451 48.4706 74.6765V72.7059V70.7353V69.8824H49.3235H51.2941H53.2647H54.1176C54.1176 69.8824 54.1176 70.1667 54.1176 70.7353V72.7059V74.6765V75.5294C54.1176 75.5294 53.8333 75.5294 53.2647 75.5294H51.2941H49.3235H48.4706ZM62.5882 75.5294C62.5882 75.5294 62.5882 75.2451 62.5882 74.6765V72.7059V70.7353V69.8824H63.4412H65.4118H67.3824H68.2353C68.2353 69.8824 68.2353 70.1667 68.2353 70.7353V72.7059V74.6765V75.5294C68.2353 75.5294 67.951 75.5294 67.3824 75.5294H65.4118H63.4412H62.5882ZM48.4706 72C48.4706 72 48.4706 71.7157 48.4706 71.1471V69.1765V67.2059V66.3529H49.3235H51.2941H53.2647H54.1176C54.1176 66.3529 54.1176 66.6373 54.1176 67.2059V69.1765V71.1471V72C54.1176 72 53.8333 72 53.2647 72H51.2941H49.3235H48.4706ZM62.5882 72C62.5882 72 62.5882 71.7157 62.5882 71.1471V69.1765V67.2059V66.3529H63.4412H65.4118H67.3824H68.2353C68.2353 66.3529 68.2353 66.6373 68.2353 67.2059V69.1765V71.1471V72C68.2353 72 67.951 72 67.3824 72H65.4118H63.4412H62.5882ZM62.5882 68.4706C62.5882 68.4706 62.5882 68.1863 62.5882 67.6176V65.6471V63.6765V62.8235H63.4412H65.4118H67.3824H68.2353C68.2353 62.8235 68.2353 63.1078 68.2353 63.6765V65.6471V67.6176V68.4706C68.2353 68.4706 67.951 68.4706 67.3824 68.4706H65.4118H63.4412H62.5882ZM62.5882 64.9412C62.5882 64.9412 62.5882 64.6569 62.5882 64.0882V62.1176V60.1471V59.2941H63.4412H65.4118H67.3824H68.2353C68.2353 59.2941 68.2353 59.5784 68.2353 60.1471V62.1176V64.0882V64.9412C68.2353 64.9412 67.951 64.9412 67.3824 64.9412H65.4118H63.4412H62.5882ZM52 61.4118C52 61.4118 52 61.1274 52 60.5588V58.5882V56.6176V55.7647H52.8529H54.8235H56.7941H57.6471C57.6471 55.7647 57.6471 56.049 57.6471 56.6176V58.5882V60.5588V61.4118C57.6471 61.4118 57.3627 61.4118 56.7941 61.4118H54.8235H52.8529H52ZM55.5294 61.4118C55.5294 61.4118 55.5294 61.1274 55.5294 60.5588V58.5882V56.6176V55.7647H56.3824H58.3529H60.3235H61.1765C61.1765 55.7647 61.1765 56.049 61.1765 56.6176V58.5882V60.5588V61.4118C61.1765 61.4118 60.8922 61.4118 60.3235 61.4118H58.3529H56.3824H55.5294ZM59.0588 61.4118C59.0588 61.4118 59.0588 61.1274 59.0588 60.5588V58.5882V56.6176V55.7647H59.9118H61.8824H63.8529H64.7059C64.7059 55.7647 64.7059 56.049 64.7059 56.6176V58.5882V60.5588V61.4118C64.7059 61.4118 64.4216 61.4118 63.8529 61.4118H61.8824H59.9118H59.0588ZM62.5882 57.8824C62.5882 57.8824 62.5882 57.598 62.5882 57.0294V55.0588V53.0882V52.2353H63.4412H65.4118H67.3824H68.2353C68.2353 52.2353 68.2353 52.5196 68.2353 53.0882V55.0588V57.0294V57.8824C68.2353 57.8824 67.951 57.8824 67.3824 57.8824H65.4118H63.4412H62.5882ZM62.5882 54.3529C62.5882 54.3529 62.5882 54.0686 62.5882 53.5V51.5294V49.5588V48.7059H63.4412H65.4118H67.3824H68.2353C68.2353 48.7059 68.2353 48.9902 68.2353 49.5588V51.5294V53.5V54.3529C68.2353 54.3529 67.951 54.3529 67.3824 54.3529H65.4118H63.4412H62.5882ZM48.4706 50.8235C48.4706 50.8235 48.4706 50.5392 48.4706 49.9706V48V46.0294V45.1765H49.3235H51.2941H53.2647H54.1176C54.1176 45.1765 54.1176 45.4608 54.1176 46.0294V48V49.9706V50.8235C54.1176 50.8235 53.8333 50.8235 53.2647 50.8235H51.2941H49.3235H48.4706ZM62.5882 50.8235C62.5882 50.8235 62.5882 50.5392 62.5882 49.9706V48V46.0294V45.1765H63.4412H65.4118H67.3824H68.2353C68.2353 45.1765 68.2353 45.4608 68.2353 46.0294V48V49.9706V50.8235C68.2353 50.8235 67.951 50.8235 67.3824 50.8235H65.4118H63.4412H62.5882ZM48.4706 47.2941C48.4706 47.2941 48.4706 47.0098 48.4706 46.4412V44.4706V42.5V41.6471H49.3235H51.2941H53.2647H54.1176C54.1176 41.6471 54.1176 41.9314 54.1176 42.5V44.4706V46.4412V47.2941C54.1176 47.2941 53.8333 47.2941 53.2647 47.2941H51.2941H49.3235H48.4706ZM62.5882 47.2941C62.5882 47.2941 62.5882 47.0098 62.5882 46.4412V44.4706V42.5V41.6471H63.4412H65.4118H67.3824H68.2353C68.2353 41.6471 68.2353 41.9314 68.2353 42.5V44.4706V46.4412V47.2941C68.2353 47.2941 67.951 47.2941 67.3824 47.2941H65.4118H63.4412H62.5882ZM52 43.7647C52 43.7647 52 43.4804 52 42.9118V40.9412V38.9706V38.1176H52.8529H54.8235H56.7941H57.6471C57.6471 38.1176 57.6471 38.402 57.6471 38.9706V40.9412V42.9118V43.7647C57.6471 43.7647 57.3627 43.7647 56.7941 43.7647H54.8235H52.8529H52ZM55.5294 43.7647C55.5294 43.7647 55.5294 43.4804 55.5294 42.9118V40.9412V38.9706V38.1176H56.3824H58.3529H60.3235H61.1765C61.1765 38.1176 61.1765 38.402 61.1765 38.9706V40.9412V42.9118V43.7647C61.1765 43.7647 60.8922 43.7647 60.3235 43.7647H58.3529H56.3824H55.5294ZM59.0588 43.7647C59.0588 43.7647 59.0588 43.4804 59.0588 42.9118V40.9412V38.9706V38.1176H59.9118H61.8824H63.8529H64.7059C64.7059 38.1176 64.7059 38.402 64.7059 38.9706V40.9412V42.9118V43.7647C64.7059 43.7647 64.4216 43.7647 63.8529 43.7647H61.8824H59.9118H59.0588Z" fill="#2D2650"/>
</svg>
