<svg width="1440" height="107" viewBox="0 0 1440 107" fill="none" xmlns="http://www.w3.org/2000/svg">
<path d="M9 71.2827V65.2827H3V59.2827H-3V41.2827H3V35.2827H9V29.2827H33V35.2827H39V41.2827H27V35.2827H15V41.2827H9V59.2827H15V65.2827H27V59.2827H39V65.2827H33V71.2827H9ZM65.4 41.2827H71.4V47.2827H77.4V53.2827H83.4V65.2827H89.4V71.2827H77.4V65.2827H71.4V53.2827H59.4V71.2827H47.4V29.2827H59.4V47.2827H65.4V41.2827ZM89.4 29.2827V35.2827H83.4V41.2827H71.4V35.2827H77.4V29.2827H89.4ZM97.8 71.2827V29.2827H133.8V35.2827H109.8V47.2827H133.8V53.2827H139.8V65.2827H133.8V71.2827H97.8ZM109.8 65.2827H127.8V53.2827H109.8V65.2827ZM216.6 41.2827H222.6V47.2827H228.6V53.2827H234.6V65.2827H240.6V71.2827H228.6V65.2827H222.6V53.2827H210.6V71.2827H198.6V29.2827H210.6V47.2827H216.6V41.2827ZM240.6 29.2827V35.2827H234.6V41.2827H222.6V35.2827H228.6V29.2827H240.6ZM255 71.2827V65.2827H249V35.2827H255V29.2827H285V35.2827H291V65.2827H285V71.2827H255ZM261 65.2827H279V35.2827H261V65.2827ZM299.4 71.2827V29.2827H311.4V47.2827H329.4V29.2827H341.4V71.2827H329.4V53.2827H311.4V71.2827H299.4ZM367.8 71.2827V35.2827H355.8V29.2827H391.8V35.2827H379.8V71.2827H367.8ZM406.2 71.2827V65.2827H400.2V59.2827H412.2V65.2827H430.2V53.2827H406.2V47.2827H400.2V29.2827H412.2V47.2827H430.2V29.2827H442.2V65.2827H436.2V71.2827H406.2ZM450.6 71.2827V29.2827H486.6V35.2827H492.6V53.2827H486.6V59.2827H462.6V71.2827H450.6ZM462.6 53.2827H480.6V35.2827H462.6V53.2827Z" fill="#2B2A28"/>
<path d="M643 71.2827V65.2827H649V59.2827H655V53.2827H643V35.2827H649V29.2827H685V71.2827H673V59.2827H661V71.2827H643ZM661 53.2827H673V35.2827H655V47.2827H661V53.2827ZM693.4 71.2827V29.2827H705.4V47.2827H723.4V29.2827H735.4V71.2827H723.4V53.2827H705.4V71.2827H693.4ZM743.8 77.2827V65.2827H749.8V53.2827H755.8V29.2827H785.8V65.2827H791.8V77.2827H779.8V71.2827H755.8V77.2827H743.8ZM761.8 65.2827H773.8V35.2827H761.8V65.2827ZM794.2 71.2827V29.2827H836.2V35.2827H806.2V47.2827H830.2V53.2827H806.2V65.2827H836.2V71.2827H794.2ZM862.6 41.2827H868.6V47.2827H874.6V53.2827H880.6V65.2827H886.6V71.2827H874.6V65.2827H868.6V53.2827H856.6V71.2827H844.6V29.2827H856.6V47.2827H862.6V41.2827ZM886.6 29.2827V35.2827H880.6V41.2827H868.6V35.2827H874.6V29.2827H886.6ZM907 71.2827V65.2827H901V59.2827H895V41.2827H901V35.2827H907V29.2827H931V35.2827H937V41.2827H925V35.2827H913V41.2827H907V59.2827H913V65.2827H925V59.2827H937V65.2827H931V71.2827H907ZM957.4 71.2827V59.2827H969.4V71.2827H957.4ZM1052.2 71.2827V65.2827H1046.2V35.2827H1052.2V29.2827H1082.2V35.2827H1088.2V65.2827H1082.2V71.2827H1052.2ZM1058.2 65.2827H1076.2V35.2827H1058.2V65.2827ZM1096.6 71.2827V29.2827H1132.6V35.2827H1108.6V47.2827H1132.6V53.2827H1138.6V65.2827H1132.6V71.2827H1096.6ZM1108.6 65.2827H1126.6V53.2827H1108.6V65.2827ZM1147 71.2827V59.2827H1153V53.2827H1159V29.2827H1189V71.2827H1177V35.2827H1165V65.2827H1159V71.2827H1147ZM1197.4 71.2827V41.2827H1203.4V35.2827H1209.4V29.2827H1227.4V35.2827H1233.4V41.2827H1239.4V71.2827H1227.4V59.2827H1209.4V71.2827H1197.4ZM1209.4 53.2827H1227.4V41.2827H1221.4V35.2827H1215.4V41.2827H1209.4V53.2827ZM1265.8 41.2827H1271.8V47.2827H1277.8V53.2827H1283.8V65.2827H1289.8V71.2827H1277.8V65.2827H1271.8V53.2827H1259.8V71.2827H1247.8V29.2827H1259.8V47.2827H1265.8V41.2827ZM1289.8 29.2827V35.2827H1283.8V41.2827H1271.8V35.2827H1277.8V29.2827H1289.8ZM1304.2 71.2827V65.2827H1298.2V35.2827H1304.2V29.2827H1334.2V35.2827H1340.2V65.2827H1334.2V71.2827H1304.2ZM1310.2 65.2827H1328.2V35.2827H1310.2V65.2827Z" fill="#2B2A28"/>
</svg>
