<svg width="279" height="242" viewBox="0 0 279 242" fill="none" xmlns="http://www.w3.org/2000/svg">
<path fill-rule="evenodd" clip-rule="evenodd" d="M0 0.00012207H42V120H50V100H60V80.0001H70V60.0001H80V40.0001H100V0.00012207H142V242H100V122H92V142H82V162H72V182H62V202H42V242H0V0.00012207ZM37 5.00012H5V237H37V197H57V177H67V157H77V137H87V117H97V97.0001H105V237H137V5.00012H105V45.0001H85V65.0001H75V85.0001H65V105H55V125H45V145H37V5.00012Z" fill="#EBE965"/>
<path fill-rule="evenodd" clip-rule="evenodd" d="M194 117H242V205H194V117ZM237 122H199V200H237V122Z" fill="#EBE965"/>
<path fill-rule="evenodd" clip-rule="evenodd" d="M157 0.00012207V242H259V222H279V100H259V80.0001H199V42.0001H279V0.00012207H157ZM274 5.00012H162V237H254V217H274V105H254V85.0001H194V37.0001H274V5.00012Z" fill="#EBE965"/>
</svg>
