<svg width="272" height="272" viewBox="0 0 272 272" fill="none" xmlns="http://www.w3.org/2000/svg">
<g id="PixelIllustrationCastle=Open">
<g id="pixelarticons:shield" clip-path="url(#clip0_625_7069)">
<path id="Vector" d="M269.762 0H2.23438V161.411H25.4092V23.1748H246.587V161.411H269.762V0ZM53.0564 161.411H25.4092V189.058H53.0564V161.411ZM53.0564 189.058H80.7037V216.706H108.351V244.353H80.7037V216.706H53.0564V189.058ZM108.351 244.353V272H163.645V244.353H191.293V216.706H163.645V244.353H108.351ZM246.587 161.411H218.94V189.058H191.293V216.706H218.94V189.058H246.587V161.411Z" fill="#2D2650"/>
<g id="Vector_2">
<path fill-rule="evenodd" clip-rule="evenodd" d="M109.231 95.4751H93.1846V170.357H178.764V95.4751H162.718H152.021H119.928H109.231ZM168.067 106.173H119.928H103.882V159.66H168.067V106.173Z" fill="#DFDC01"/>
<path d="M141.323 122.219H130.626V143.614H141.323V122.219Z" fill="#DFDC01"/>
</g>
<path id="Vector_3" d="M109.231 74.0801H119.929V95.475H109.231V74.0801Z" fill="#DFDC01"/>
</g>
</g>
<defs>
<clipPath id="clip0_625_7069">
<rect width="272" height="272" fill="white"/>
</clipPath>
</defs>
</svg>
