<svg width="68" height="64" viewBox="0 0 68 64" fill="none" xmlns="http://www.w3.org/2000/svg">
<path d="M66 32C66 49.6731 51.6731 64 34 64C16.3269 64 2 49.6731 2 32C2 14.3269 16.3269 0 34 0C51.6731 0 66 14.3269 66 32ZM21.2 32C21.2 39.0692 26.9308 44.8 34 44.8C41.0692 44.8 46.8 39.0692 46.8 32C46.8 24.9308 41.0692 19.2 34 19.2C26.9308 19.2 21.2 24.9308 21.2 32Z" fill="#DFDC01"/>
<g clip-path="url(#clip0_696_6322)">
<path d="M49.6196 49.2686L49.5553 49.192L49.4787 49.2562L47.4667 50.9422L47.3901 51.0064L47.4543 51.0831L48.0163 51.7537L48.0805 51.8304L48.1571 51.7661L50.1692 50.0802L50.2458 50.0159L50.1815 49.9392L49.6196 49.2686Z" fill="#4A399D"/>
<path d="M40.1253 54.9077L40.0999 54.811L40.0032 54.8364L37.4638 55.5013L37.367 55.5267L37.3924 55.6234L37.614 56.4698L37.6394 56.5666L37.7361 56.5412L40.2755 55.8763L40.3722 55.851L40.3469 55.7542L40.1253 54.9077Z" fill="#4A399D"/>
<path fill-rule="evenodd" clip-rule="evenodd" d="M55.1913 35.7954L53.9761 35.325L52.5278 38.998L53.6773 39.4429L54.1066 39.609L54.0049 39.867L52.4261 39.2559L50.9873 42.9049L52.1374 43.35L57.0599 45.2548L58.4989 41.6062L56.9176 40.9944L57.0194 40.7364L58.6003 41.3483L59.1579 39.9342L59.1987 39.8313L60.0492 37.6756L55.1913 35.7954ZM56.3641 39.2612L57.9648 39.8808L58.5746 38.3343L54.622 36.8044L54.0126 38.3509L55.586 38.96L54.6555 41.3198L53.0816 40.7106L52.4643 42.2761L56.4171 43.8061L57.0344 42.2405L55.9371 41.816L55.4336 41.6209L56.3641 39.2612Z" fill="#4A399D"/>
<path fill-rule="evenodd" clip-rule="evenodd" d="M53.8305 32.1891L53.9021 32.6827L54.7653 32.5576L54.8884 33.4067L62.0656 32.3653L61.0263 25.1931L60.1517 25.3297L60.0251 24.4564L53.7237 25.3696L53.8503 26.2428L52.987 26.3679L53.8305 32.1891ZM55.614 31.4107L54.7591 31.5346L54.1351 27.2285L54.99 27.1047L54.8627 26.2264L59.1885 25.5995L59.313 26.4585L60.1752 26.3335L60.9276 31.526L60.0925 31.647L59.4664 27.3213L57.7104 27.5757L57.8369 28.4485L58.7022 28.3231L59.078 30.9166L58.2115 31.0422L58.2879 31.5693L58.336 31.9016L55.7396 32.2778L55.614 31.4107Z" fill="#4A399D"/>
<path fill-rule="evenodd" clip-rule="evenodd" d="M51.3344 22.6389L51.6189 23.0485L52.3353 22.5509L52.8452 23.2669L56.6473 20.6287L56.1339 19.9211L56.8602 19.4198L54.3083 15.7217L53.2303 14.1834L52.5073 14.6627L52.0039 13.9379L48.192 16.5856L48.6954 17.3103L47.9789 17.8079L51.3344 22.6389ZM52.5821 21.1457L51.8727 21.6385L49.3906 18.0649L50.1 17.5721L49.5938 16.8433L51.7509 15.345L52.2476 16.0616L52.9764 15.5699L55.4605 19.156L54.7413 19.6555L55.0452 20.093L55.2367 20.3687L53.082 21.8654L52.5821 21.1457Z" fill="#4A399D"/>
<path fill-rule="evenodd" clip-rule="evenodd" d="M24.293 14.3123L24.702 14.0269L24.2028 13.3115L24.9178 12.8001L22.2713 9.00376L21.5648 9.51867L21.062 8.79344L17.3694 11.3534L15.8334 12.4347L16.3142 13.1567L15.5906 13.6616L18.2465 17.4678L18.9701 16.9629L19.4693 17.6782L24.293 14.3123ZM22.7971 13.0677L23.2914 13.7762L19.7232 16.266L19.2289 15.5576L18.5012 16.0654L16.9982 13.9116L17.7137 13.4133L17.2204 12.6856L20.8012 10.1937L21.3022 10.9118L21.739 10.607L22.0144 10.4148L23.5157 12.5663L22.7971 13.0677Z" fill="#4A399D"/>
<path fill-rule="evenodd" clip-rule="evenodd" d="M44.5115 15.3682L44.9298 14.6088L45.6787 15.0211L47.9181 10.9561L47.1702 10.5441L47.5912 9.77994L46.8186 9.35427L41.2305 6.27415L37.7384 12.6106L41.0213 14.4191L41.4328 13.6722L43.722 14.9333L44.5115 15.3682ZM41.212 8.4068L41.629 7.65029L43.1505 8.48894L42.7339 9.24519L43.5 9.66719L43.0805 10.4286L42.3145 10.0066L41.468 11.5431L43.0055 12.3925L43.7586 12.8073L45.0255 10.5076L43.5 9.66719L43.9165 8.91113L45.4395 9.75063L46.2166 10.1775L45.7997 10.9355L46.5584 11.3535L45.2931 13.6503L44.5319 13.2356L44.1114 13.9989L43.334 13.5781L41.0456 12.31L40.6231 13.0768L39.1014 12.2385L39.5161 11.4674L39.9388 10.7006L41.212 8.4068Z" fill="#4A399D"/>
<path fill-rule="evenodd" clip-rule="evenodd" d="M29.9033 9.87939L31.6551 9.76077L31.4793 7.15508L29.7266 7.27096L29.9033 9.87939Z" fill="#4A399D"/>
<path fill-rule="evenodd" clip-rule="evenodd" d="M27.9062 8.13346L27.026 8.19306L27.0844 9.05527L26.195 9.1155L26.4497 12.8773L30.2132 12.6224L30.1541 11.7494L31.6428 11.6486L31.702 12.5216L35.4386 12.2674L35.1892 8.52428L34.332 8.58305L34.0992 5.08333L30.3595 5.33505L27.7289 5.51469L27.7863 6.36261L27.9062 8.13346ZM33.2794 7.87934L33.2208 7.00574L33.1637 6.16225L28.7758 6.45962L28.953 9.0708L28.0792 9.13605L28.1363 9.9954L27.2713 10.0576L27.3891 11.8117L29.1306 11.6935L29.0717 10.8244L32.585 10.5865L32.6429 11.4479L34.382 11.3379L34.2633 9.58415L33.3888 9.64337L33.2794 7.87934Z" fill="#4A399D"/>
<path fill-rule="evenodd" clip-rule="evenodd" d="M12.6183 16.1763L8.82954 23.3956L14.4931 26.3675L16.2461 23.0274L13.1313 21.405L13.4181 20.8585L16.5278 22.4906L18.2818 19.1486L12.6183 16.1763ZM14.0597 24.9995L10.1895 22.9676L13.0341 17.5476L16.9045 19.5789L16.0896 21.1317L12.9973 19.5088L11.7783 21.8316L14.8705 23.4545L14.0597 24.9995Z" fill="#4A399D"/>
</g>
<defs>
<clipPath id="clip0_696_6322">
<rect width="56" height="56" fill="white" transform="matrix(-1 0 0 -1 62 60)"/>
</clipPath>
</defs>
</svg>
