<svg width="273" height="272" viewBox="0 0 273 272" fill="none" xmlns="http://www.w3.org/2000/svg">
<g id="PixelIllustrationCastle=NotLock">
<g id="pixelarticons:shield" clip-path="url(#clip0_625_7079)">
<path id="Vector" d="M270.158 0H2.63086V161.411H25.8056V23.1748H246.984V161.411H270.158V0ZM53.4529 161.411H25.8056V189.058H53.4529V161.411ZM53.4529 189.058H81.1001V216.706H108.747V244.353H81.1001V216.706H53.4529V189.058ZM108.747 244.353V272H164.042V244.353H191.689V216.706H164.042V244.353H108.747ZM246.984 161.411H219.336V189.058H191.689V216.706H219.336V189.058H246.984V161.411Z" fill="#2D2650"/>
<g id="Vector_2">
<path fill-rule="evenodd" clip-rule="evenodd" d="M109.628 95.4751H93.582V170.357H179.162V95.4751H163.116H152.418H120.326H109.628ZM168.464 106.173H120.326H104.279V159.66H168.464V106.173Z" fill="#DFDC01"/>
<path d="M141.721 122.219H131.023V143.614H141.721V122.219Z" fill="#DFDC01"/>
</g>
<path id="Vector_3" d="M120.325 63.3828H152.418V74.0803H120.325V95.4752H109.628V74.0803H120.325V63.3828Z" fill="#DFDC01"/>
</g>
</g>
<defs>
<clipPath id="clip0_625_7079">
<rect width="272" height="272" fill="white" transform="translate(0.396484)"/>
</clipPath>
</defs>
</svg>
