<svg width="40" height="41" viewBox="0 0 40 41" fill="none" xmlns="http://www.w3.org/2000/svg">
<path fill-rule="evenodd" clip-rule="evenodd" d="M39.0082 28.2403C38.1015 26.4144 36.9068 24.7464 35.4698 23.3003C34.9892 22.7572 34.486 22.2345 33.9615 21.7337L33.8982 21.672C33.7034 21.4829 33.5112 21.2912 33.3215 21.097C35.2858 18.3655 36.9667 15.4409 38.3382 12.3687L38.3932 12.2453L38.4315 12.1153C38.6132 11.5103 38.8198 10.3603 38.0865 9.32033C37.3265 8.247 36.1115 8.05366 35.2965 8.05366H31.5515C30.7673 8.01793 29.992 8.23116 29.3364 8.66284C28.6808 9.09453 28.1785 9.72254 27.9015 10.457C27.0955 12.3764 26.0865 14.204 24.8915 15.9087V11.5203C24.8915 10.9537 24.8382 10.0037 24.2298 9.20366C23.5032 8.24366 22.4515 8.05366 21.7215 8.05366H15.7782C15.0026 8.03582 14.2499 8.31693 13.6759 8.83879C13.102 9.36064 12.7507 10.0833 12.6948 10.857L12.6898 10.932V11.007C12.6898 11.8153 13.0098 12.412 13.2665 12.787C13.3815 12.9553 13.5032 13.1087 13.5815 13.2053L13.5982 13.227C13.6815 13.3303 13.7365 13.3987 13.7915 13.4753C13.9382 13.672 14.1465 13.9787 14.2065 14.7687V17.2237C13.0135 15.2259 12.0352 13.1074 11.2882 10.9037L11.2748 10.867L11.2615 10.832C11.0582 10.3003 10.7332 9.527 10.0815 8.937C9.3215 8.24533 8.4215 8.05366 7.60317 8.05366H3.80317C2.97484 8.05366 1.9765 8.247 1.2315 9.032C0.499837 9.80533 0.416504 10.732 0.416504 11.222V11.4453L0.463171 11.662C1.51534 16.5466 3.68356 21.1215 6.79817 25.0287C8.22213 27.2742 10.1553 29.1524 12.4409 30.5111C14.7265 31.8698 17.3002 32.6706 19.9532 32.8487L20.0215 32.8537H20.0915C21.3015 32.8537 22.5632 32.7487 23.5115 32.117C24.7898 31.2637 24.8915 29.9553 24.8915 29.302V27.4053C25.2198 27.672 25.6265 28.0287 26.1248 28.5087C26.7282 29.112 27.2082 29.6353 27.6198 30.092L27.8398 30.3353C28.1598 30.692 28.4748 31.0437 28.7615 31.332C29.1215 31.6937 29.5665 32.092 30.1232 32.387C30.7282 32.7053 31.3632 32.8503 32.0365 32.8503H35.8382C36.6398 32.8503 37.7882 32.6603 38.5965 31.7237C39.4765 30.7037 39.4098 29.452 39.1332 28.5537L39.0832 28.392L39.0082 28.2403ZM29.4748 28.417C28.9583 27.8396 28.4264 27.276 27.8798 26.727L27.8748 26.722C25.6132 24.542 24.5582 24.1637 23.8115 24.1637C23.4132 24.1637 22.9748 24.207 22.6898 24.5637C22.5615 24.7338 22.4773 24.9331 22.4448 25.1437C22.4047 25.3882 22.3868 25.6359 22.3915 25.8837V29.302C22.3915 29.727 22.3215 29.9053 22.1248 30.0353C21.8632 30.2103 21.3048 30.352 20.1065 30.352C17.8302 30.1971 15.6231 29.5042 13.6668 28.3301C11.7105 27.1561 10.0607 25.5345 8.85317 23.5987L8.83984 23.577L8.82317 23.557C5.9217 19.9456 3.89958 15.7091 2.9165 11.182C2.92317 10.9653 2.96984 10.8337 3.0465 10.7537C3.12484 10.6703 3.3165 10.5537 3.80317 10.5537H7.60317C8.02484 10.5537 8.24484 10.647 8.40317 10.7887C8.57984 10.952 8.7365 11.227 8.92317 11.717C9.8565 14.4603 11.1165 17.027 12.3115 18.912C12.9082 19.8553 13.4948 20.6403 14.0248 21.1953C14.2898 21.472 14.5482 21.702 14.7965 21.8653C15.0348 22.022 15.3065 22.147 15.5865 22.147C15.7332 22.147 15.9048 22.1303 16.0698 22.0587C16.248 21.98 16.3947 21.8438 16.4865 21.672C16.6582 21.3587 16.7065 20.897 16.7065 20.292V14.6703C16.6182 13.307 16.2065 12.5387 15.8065 11.9937C15.7255 11.8847 15.6421 11.7774 15.5565 11.672L15.5348 11.6453C15.4638 11.559 15.3959 11.4701 15.3315 11.3787C15.2495 11.2767 15.2001 11.1524 15.1898 11.022C15.2029 10.8896 15.2661 10.7671 15.3665 10.6798C15.4669 10.5924 15.5969 10.5467 15.7298 10.552H21.7215C22.0648 10.552 22.1798 10.6353 22.2382 10.7137C22.3215 10.822 22.3915 11.047 22.3915 11.5203V19.067C22.3915 19.9637 22.8048 20.5703 23.4048 20.5703C24.0948 20.5703 24.5932 20.152 25.4632 19.282L25.4782 19.2653L25.4915 19.2503C27.4431 16.8708 29.0377 14.2196 30.2248 11.3803L30.2315 11.3603C30.3207 11.1095 30.4895 10.8947 30.7122 10.7487C30.9349 10.6028 31.1992 10.5337 31.4648 10.552H35.2982C35.8182 10.552 35.9882 10.6853 36.0448 10.7637C36.1032 10.847 36.1448 11.0253 36.0448 11.3753C34.6758 14.4359 32.9834 17.3413 30.9965 20.042L30.9832 20.062C30.7915 20.357 30.5798 20.6837 30.5498 21.057C30.5165 21.4603 30.6898 21.8253 30.9948 22.2187C31.2165 22.5453 31.6748 22.9937 32.1398 23.4487L32.1832 23.492C32.6698 23.9687 33.1982 24.4853 33.6215 24.9853L33.6332 24.997L33.6448 25.0103C34.9072 26.2695 35.9569 27.725 36.7532 29.3203C36.8798 29.7537 36.8032 29.977 36.7032 30.092C36.5882 30.2253 36.3298 30.3503 35.8398 30.3503H32.0365C31.7773 30.3566 31.5208 30.2964 31.2915 30.1753C31.0105 30.0119 30.7555 29.8074 30.5348 29.5687C30.2965 29.3303 30.0382 29.042 29.7215 28.6903L29.4765 28.417H29.4748Z" fill="#DFDC01"/>
</svg>
